<mxfile host="app.diagrams.net" modified="2021-03-10T12:47:42.404Z" agent="5.0 (Windows NT 10.0; Win64; x64) AppleWebKit/537.36 (KHTML, like Gecko) Chrome/88.0.4324.190 Safari/537.36" etag="J3vm9DLb1O9rY0xwF1F_" version="14.4.6" type="github" pages="2">
  <diagram id="C5RBs43oDa-KdzZeNtuy" name="Page-1">
    <mxGraphModel dx="1985" dy="1435" grid="0" gridSize="10" guides="1" tooltips="1" connect="1" arrows="1" fold="1" page="0" pageScale="1" pageWidth="827" pageHeight="1169" math="0" shadow="0">
      <root>
        <mxCell id="WIyWlLk6GJQsqaUBKTNV-0" />
        <mxCell id="WIyWlLk6GJQsqaUBKTNV-1" parent="WIyWlLk6GJQsqaUBKTNV-0" />
        <mxCell id="wSe9VvO9Vw-kVZwkvqzk-7" style="edgeStyle=orthogonalEdgeStyle;rounded=0;orthogonalLoop=1;jettySize=auto;html=1;entryX=0.5;entryY=0;entryDx=0;entryDy=0;fillColor=#6d8764;strokeColor=#3A5431;" parent="WIyWlLk6GJQsqaUBKTNV-1" source="3iV4uDGy3LyCtoVsyBQB-0" target="3iV4uDGy3LyCtoVsyBQB-1" edge="1">
          <mxGeometry relative="1" as="geometry" />
        </mxCell>
        <mxCell id="3iV4uDGy3LyCtoVsyBQB-0" value="seabed.find_roi()" style="rounded=1;whiteSpace=wrap;html=1;fillColor=#6d8764;strokeColor=#3A5431;fontColor=#ffffff;" parent="WIyWlLk6GJQsqaUBKTNV-1" vertex="1">
          <mxGeometry x="530" y="470" width="160" height="60" as="geometry" />
        </mxCell>
        <mxCell id="wSe9VvO9Vw-kVZwkvqzk-8" style="edgeStyle=orthogonalEdgeStyle;rounded=0;orthogonalLoop=1;jettySize=auto;html=1;fillColor=#6d8764;strokeColor=#3A5431;" parent="WIyWlLk6GJQsqaUBKTNV-1" source="3iV4uDGy3LyCtoVsyBQB-1" target="3iV4uDGy3LyCtoVsyBQB-3" edge="1">
          <mxGeometry relative="1" as="geometry" />
        </mxCell>
        <mxCell id="3iV4uDGy3LyCtoVsyBQB-1" value="seabed.split_roi_&lt;br&gt;into_squares()" style="rounded=1;whiteSpace=wrap;html=1;fillColor=#6d8764;strokeColor=#3A5431;fontColor=#ffffff;" parent="WIyWlLk6GJQsqaUBKTNV-1" vertex="1">
          <mxGeometry x="530" y="590" width="160" height="60" as="geometry" />
        </mxCell>
        <mxCell id="3iV4uDGy3LyCtoVsyBQB-3" value="seabed.draw_map()" style="rounded=1;whiteSpace=wrap;html=1;fillColor=#6d8764;strokeColor=#3A5431;fontColor=#ffffff;" parent="WIyWlLk6GJQsqaUBKTNV-1" vertex="1">
          <mxGeometry x="530" y="700" width="160" height="60" as="geometry" />
        </mxCell>
        <mxCell id="wSe9VvO9Vw-kVZwkvqzk-6" style="edgeStyle=orthogonalEdgeStyle;rounded=0;orthogonalLoop=1;jettySize=auto;html=1;entryX=0.5;entryY=0;entryDx=0;entryDy=0;fillColor=#6d8764;strokeColor=#3A5431;" parent="WIyWlLk6GJQsqaUBKTNV-1" source="3iV4uDGy3LyCtoVsyBQB-4" target="3iV4uDGy3LyCtoVsyBQB-0" edge="1">
          <mxGeometry relative="1" as="geometry" />
        </mxCell>
        <mxCell id="3iV4uDGy3LyCtoVsyBQB-4" value="seabed.initial_image_&lt;br&gt;transformations()" style="rounded=1;whiteSpace=wrap;html=1;fillColor=#6d8764;strokeColor=#3A5431;fontColor=#ffffff;" parent="WIyWlLk6GJQsqaUBKTNV-1" vertex="1">
          <mxGeometry x="530" y="350" width="160" height="60" as="geometry" />
        </mxCell>
        <mxCell id="3iV4uDGy3LyCtoVsyBQB-19" value="initial_image_&lt;br&gt;transformations()" style="rounded=1;whiteSpace=wrap;html=1;" parent="WIyWlLk6GJQsqaUBKTNV-1" vertex="1">
          <mxGeometry x="890" y="190" width="140" height="60" as="geometry" />
        </mxCell>
        <mxCell id="3iV4uDGy3LyCtoVsyBQB-20" value="find_roi()" style="rounded=1;whiteSpace=wrap;html=1;" parent="WIyWlLk6GJQsqaUBKTNV-1" vertex="1">
          <mxGeometry x="1060" y="190" width="140" height="60" as="geometry" />
        </mxCell>
        <mxCell id="3iV4uDGy3LyCtoVsyBQB-21" value="split_roi_into_squares()" style="rounded=1;whiteSpace=wrap;html=1;" parent="WIyWlLk6GJQsqaUBKTNV-1" vertex="1">
          <mxGeometry x="1220" y="190" width="140" height="60" as="geometry" />
        </mxCell>
        <mxCell id="3iV4uDGy3LyCtoVsyBQB-22" value="draw_map()" style="rounded=1;whiteSpace=wrap;html=1;" parent="WIyWlLk6GJQsqaUBKTNV-1" vertex="1">
          <mxGeometry x="1380" y="190" width="140" height="60" as="geometry" />
        </mxCell>
        <mxCell id="3iV4uDGy3LyCtoVsyBQB-49" value="scan_for_objects()" style="rounded=1;whiteSpace=wrap;html=1;fillColor=#fff2cc;strokeColor=#d6b656;" parent="WIyWlLk6GJQsqaUBKTNV-1" vertex="1">
          <mxGeometry x="1220" y="320" width="120" height="40" as="geometry" />
        </mxCell>
        <mxCell id="3iV4uDGy3LyCtoVsyBQB-51" value="" style="rounded=1;whiteSpace=wrap;html=1;fillColor=#fff2cc;strokeColor=#d6b656;" parent="WIyWlLk6GJQsqaUBKTNV-1" vertex="1">
          <mxGeometry x="1221" y="270" width="120" height="40" as="geometry" />
        </mxCell>
        <mxCell id="zkfFHV4jXpPFQw0GAbJ--17" value="Seabed" style="swimlane;fontStyle=0;align=center;verticalAlign=top;childLayout=stackLayout;horizontal=1;startSize=26;horizontalStack=0;resizeParent=1;resizeLast=0;collapsible=1;marginBottom=0;rounded=0;shadow=0;strokeWidth=1;fillColor=#fff2cc;strokeColor=#d6b656;" parent="WIyWlLk6GJQsqaUBKTNV-1" vertex="1">
          <mxGeometry x="214" y="230" width="200" height="242" as="geometry">
            <mxRectangle x="214" y="230" width="160" height="26" as="alternateBounds" />
          </mxGeometry>
        </mxCell>
        <mxCell id="zkfFHV4jXpPFQw0GAbJ--18" value="+ div image formats" style="text;align=left;verticalAlign=top;spacingLeft=4;spacingRight=4;overflow=hidden;rotatable=0;points=[[0,0.5],[1,0.5]];portConstraint=eastwest;fillColor=#f5f5f5;strokeColor=#666666;fontColor=#333333;" parent="zkfFHV4jXpPFQw0GAbJ--17" vertex="1">
          <mxGeometry y="26" width="200" height="26" as="geometry" />
        </mxCell>
        <mxCell id="zkfFHV4jXpPFQw0GAbJ--19" value="+ div parameters" style="text;align=left;verticalAlign=top;spacingLeft=4;spacingRight=4;overflow=hidden;rotatable=0;points=[[0,0.5],[1,0.5]];portConstraint=eastwest;rounded=0;shadow=0;html=0;fillColor=#f5f5f5;strokeColor=#666666;fontColor=#333333;" parent="zkfFHV4jXpPFQw0GAbJ--17" vertex="1">
          <mxGeometry y="52" width="200" height="26" as="geometry" />
        </mxCell>
        <mxCell id="778IjFVnr2L2QRDN6A1S-3" value="+ map" style="text;align=left;verticalAlign=top;spacingLeft=4;spacingRight=4;overflow=hidden;rotatable=0;points=[[0,0.5],[1,0.5]];portConstraint=eastwest;rounded=0;shadow=0;html=0;fillColor=#f5f5f5;strokeColor=#666666;fontColor=#333333;" parent="zkfFHV4jXpPFQw0GAbJ--17" vertex="1">
          <mxGeometry y="78" width="200" height="26" as="geometry" />
        </mxCell>
        <mxCell id="zkfFHV4jXpPFQw0GAbJ--22" value="+ squares" style="text;align=left;verticalAlign=top;spacingLeft=4;spacingRight=4;overflow=hidden;rotatable=0;points=[[0,0.5],[1,0.5]];portConstraint=eastwest;rounded=0;shadow=0;html=0;fillColor=#f5f5f5;strokeColor=#666666;fontColor=#333333;" parent="zkfFHV4jXpPFQw0GAbJ--17" vertex="1">
          <mxGeometry y="104" width="200" height="26" as="geometry" />
        </mxCell>
        <mxCell id="zkfFHV4jXpPFQw0GAbJ--23" value="" style="line;html=1;strokeWidth=1;align=left;verticalAlign=middle;spacingTop=-1;spacingLeft=3;spacingRight=3;rotatable=0;labelPosition=right;points=[];portConstraint=eastwest;fillColor=#fff2cc;strokeColor=#d6b656;" parent="zkfFHV4jXpPFQw0GAbJ--17" vertex="1">
          <mxGeometry y="130" width="200" height="8" as="geometry" />
        </mxCell>
        <mxCell id="zkfFHV4jXpPFQw0GAbJ--24" value="+ initial_image_transformations()" style="text;align=left;verticalAlign=top;spacingLeft=4;spacingRight=4;overflow=hidden;rotatable=0;points=[[0,0.5],[1,0.5]];portConstraint=eastwest;fillColor=#f5f5f5;strokeColor=#666666;fontColor=#333333;" parent="zkfFHV4jXpPFQw0GAbJ--17" vertex="1">
          <mxGeometry y="138" width="200" height="26" as="geometry" />
        </mxCell>
        <mxCell id="zkfFHV4jXpPFQw0GAbJ--25" value="+ find_roi()" style="text;align=left;verticalAlign=top;spacingLeft=4;spacingRight=4;overflow=hidden;rotatable=0;points=[[0,0.5],[1,0.5]];portConstraint=eastwest;fillColor=#f5f5f5;strokeColor=#666666;fontColor=#333333;" parent="zkfFHV4jXpPFQw0GAbJ--17" vertex="1">
          <mxGeometry y="164" width="200" height="26" as="geometry" />
        </mxCell>
        <mxCell id="3iV4uDGy3LyCtoVsyBQB-5" value="+ split_roi_into_squares()" style="text;align=left;verticalAlign=top;spacingLeft=4;spacingRight=4;overflow=hidden;rotatable=0;points=[[0,0.5],[1,0.5]];portConstraint=eastwest;fillColor=#f5f5f5;strokeColor=#666666;fontColor=#333333;" parent="zkfFHV4jXpPFQw0GAbJ--17" vertex="1">
          <mxGeometry y="190" width="200" height="26" as="geometry" />
        </mxCell>
        <mxCell id="3iV4uDGy3LyCtoVsyBQB-6" value="+ draw_map()" style="text;align=left;verticalAlign=top;spacingLeft=4;spacingRight=4;overflow=hidden;rotatable=0;points=[[0,0.5],[1,0.5]];portConstraint=eastwest;fillColor=#f5f5f5;strokeColor=#666666;fontColor=#333333;" parent="zkfFHV4jXpPFQw0GAbJ--17" vertex="1">
          <mxGeometry y="216" width="200" height="26" as="geometry" />
        </mxCell>
        <mxCell id="zkfFHV4jXpPFQw0GAbJ--0" value="Square" style="swimlane;fontStyle=2;align=center;verticalAlign=top;childLayout=stackLayout;horizontal=1;startSize=26;horizontalStack=0;resizeParent=1;resizeLast=0;collapsible=1;marginBottom=0;rounded=0;shadow=0;strokeWidth=1;fillColor=#fff2cc;strokeColor=#d6b656;" parent="WIyWlLk6GJQsqaUBKTNV-1" vertex="1">
          <mxGeometry x="214" y="540" width="200" height="220" as="geometry">
            <mxRectangle x="214" y="540" width="160" height="26" as="alternateBounds" />
          </mxGeometry>
        </mxCell>
        <mxCell id="zkfFHV4jXpPFQw0GAbJ--1" value="+ div image formats" style="text;align=left;verticalAlign=top;spacingLeft=4;spacingRight=4;overflow=hidden;rotatable=0;points=[[0,0.5],[1,0.5]];portConstraint=eastwest;fillColor=#f5f5f5;strokeColor=#666666;fontColor=#333333;" parent="zkfFHV4jXpPFQw0GAbJ--0" vertex="1">
          <mxGeometry y="26" width="200" height="26" as="geometry" />
        </mxCell>
        <mxCell id="zkfFHV4jXpPFQw0GAbJ--2" value="+ div parameters" style="text;align=left;verticalAlign=top;spacingLeft=4;spacingRight=4;overflow=hidden;rotatable=0;points=[[0,0.5],[1,0.5]];portConstraint=eastwest;rounded=0;shadow=0;html=0;fillColor=#f5f5f5;strokeColor=#666666;fontColor=#333333;" parent="zkfFHV4jXpPFQw0GAbJ--0" vertex="1">
          <mxGeometry y="52" width="200" height="26" as="geometry" />
        </mxCell>
        <mxCell id="zkfFHV4jXpPFQw0GAbJ--4" value="" style="line;html=1;strokeWidth=1;align=left;verticalAlign=middle;spacingTop=-1;spacingLeft=3;spacingRight=3;rotatable=0;labelPosition=right;points=[];portConstraint=eastwest;fillColor=#fff2cc;strokeColor=#d6b656;" parent="zkfFHV4jXpPFQw0GAbJ--0" vertex="1">
          <mxGeometry y="78" width="200" height="8" as="geometry" />
        </mxCell>
        <mxCell id="3iV4uDGy3LyCtoVsyBQB-10" value="+ scan_for_objects()" style="text;align=left;verticalAlign=top;spacingLeft=4;spacingRight=4;overflow=hidden;rotatable=0;points=[[0,0.5],[1,0.5]];portConstraint=eastwest;fillColor=#f5f5f5;strokeColor=#666666;fontColor=#333333;" parent="zkfFHV4jXpPFQw0GAbJ--0" vertex="1">
          <mxGeometry y="86" width="200" height="26" as="geometry" />
        </mxCell>
        <mxCell id="3iV4uDGy3LyCtoVsyBQB-11" value="+ find_designated_planting_area()&#xa;" style="text;align=left;verticalAlign=top;spacingLeft=4;spacingRight=4;overflow=hidden;rotatable=0;points=[[0,0.5],[1,0.5]];portConstraint=eastwest;fillColor=#f5f5f5;strokeColor=#666666;fontColor=#333333;" parent="zkfFHV4jXpPFQw0GAbJ--0" vertex="1">
          <mxGeometry y="112" width="200" height="26" as="geometry" />
        </mxCell>
        <mxCell id="3iV4uDGy3LyCtoVsyBQB-12" value="+ find_sea_star()" style="text;align=left;verticalAlign=top;spacingLeft=4;spacingRight=4;overflow=hidden;rotatable=0;points=[[0,0.5],[1,0.5]];portConstraint=eastwest;fillColor=#f5f5f5;strokeColor=#666666;fontColor=#333333;" parent="zkfFHV4jXpPFQw0GAbJ--0" vertex="1">
          <mxGeometry y="138" width="200" height="26" as="geometry" />
        </mxCell>
        <mxCell id="3iV4uDGy3LyCtoVsyBQB-13" value="+ find_sponge()" style="text;align=left;verticalAlign=top;spacingLeft=4;spacingRight=4;overflow=hidden;rotatable=0;points=[[0,0.5],[1,0.5]];portConstraint=eastwest;fillColor=#f5f5f5;strokeColor=#666666;fontColor=#333333;" parent="zkfFHV4jXpPFQw0GAbJ--0" vertex="1">
          <mxGeometry y="164" width="200" height="26" as="geometry" />
        </mxCell>
        <mxCell id="3iV4uDGy3LyCtoVsyBQB-14" value="+ find_coral_reef()&#xa;" style="text;align=left;verticalAlign=top;spacingLeft=4;spacingRight=4;overflow=hidden;rotatable=0;points=[[0,0.5],[1,0.5]];portConstraint=eastwest;fillColor=#f5f5f5;strokeColor=#666666;fontColor=#333333;" parent="zkfFHV4jXpPFQw0GAbJ--0" vertex="1">
          <mxGeometry y="190" width="200" height="26" as="geometry" />
        </mxCell>
        <mxCell id="wSe9VvO9Vw-kVZwkvqzk-2" value="" style="endArrow=diamondThin;endFill=1;endSize=24;html=1;exitX=0.5;exitY=0;exitDx=0;exitDy=0;entryX=0.5;entryY=1;entryDx=0;entryDy=0;fillColor=#fff2cc;strokeColor=#d6b656;" parent="WIyWlLk6GJQsqaUBKTNV-1" source="zkfFHV4jXpPFQw0GAbJ--0" target="zkfFHV4jXpPFQw0GAbJ--17" edge="1">
          <mxGeometry width="160" relative="1" as="geometry">
            <mxPoint x="314" y="450" as="sourcePoint" />
            <mxPoint x="290" y="480" as="targetPoint" />
          </mxGeometry>
        </mxCell>
        <mxCell id="wSe9VvO9Vw-kVZwkvqzk-3" value="1" style="text;html=1;align=center;verticalAlign=middle;resizable=0;points=[];autosize=1;" parent="WIyWlLk6GJQsqaUBKTNV-1" vertex="1">
          <mxGeometry x="320" y="450" width="20" height="20" as="geometry" />
        </mxCell>
        <mxCell id="wSe9VvO9Vw-kVZwkvqzk-4" value="27" style="text;html=1;align=center;verticalAlign=middle;resizable=0;points=[];autosize=1;" parent="WIyWlLk6GJQsqaUBKTNV-1" vertex="1">
          <mxGeometry x="320" y="510" width="30" height="20" as="geometry" />
        </mxCell>
        <mxCell id="778IjFVnr2L2QRDN6A1S-1" style="edgeStyle=orthogonalEdgeStyle;rounded=0;orthogonalLoop=1;jettySize=auto;html=1;entryX=0.5;entryY=0;entryDx=0;entryDy=0;" parent="WIyWlLk6GJQsqaUBKTNV-1" source="778IjFVnr2L2QRDN6A1S-0" target="3iV4uDGy3LyCtoVsyBQB-4" edge="1">
          <mxGeometry relative="1" as="geometry" />
        </mxCell>
        <mxCell id="778IjFVnr2L2QRDN6A1S-0" value="seabed = Seabed(img, map)" style="rounded=1;whiteSpace=wrap;html=1;fillColor=#6d8764;strokeColor=#3A5431;fontColor=#ffffff;" parent="WIyWlLk6GJQsqaUBKTNV-1" vertex="1">
          <mxGeometry x="530" y="240" width="160" height="60" as="geometry" />
        </mxCell>
        <mxCell id="778IjFVnr2L2QRDN6A1S-2" value="" style="rounded=1;whiteSpace=wrap;html=1;" parent="WIyWlLk6GJQsqaUBKTNV-1" vertex="1">
          <mxGeometry x="512" y="141" width="205" height="60" as="geometry" />
        </mxCell>
        <mxCell id="uDoisgnEJ3Sqodn6yVfs-0" style="edgeStyle=orthogonalEdgeStyle;rounded=0;orthogonalLoop=1;jettySize=auto;html=1;entryX=0;entryY=0.5;entryDx=0;entryDy=0;" parent="WIyWlLk6GJQsqaUBKTNV-1" source="uDoisgnEJ3Sqodn6yVfs-1" target="uDoisgnEJ3Sqodn6yVfs-4" edge="1">
          <mxGeometry relative="1" as="geometry" />
        </mxCell>
        <mxCell id="uDoisgnEJ3Sqodn6yVfs-1" value="Image" style="rounded=1;whiteSpace=wrap;html=1;" parent="WIyWlLk6GJQsqaUBKTNV-1" vertex="1">
          <mxGeometry x="-642" y="171" width="120" height="60" as="geometry" />
        </mxCell>
        <mxCell id="uDoisgnEJ3Sqodn6yVfs-2" style="edgeStyle=orthogonalEdgeStyle;rounded=0;orthogonalLoop=1;jettySize=auto;html=1;entryX=0.5;entryY=1;entryDx=0;entryDy=0;" parent="WIyWlLk6GJQsqaUBKTNV-1" source="uDoisgnEJ3Sqodn6yVfs-4" target="uDoisgnEJ3Sqodn6yVfs-9" edge="1">
          <mxGeometry relative="1" as="geometry" />
        </mxCell>
        <mxCell id="uDoisgnEJ3Sqodn6yVfs-3" style="edgeStyle=orthogonalEdgeStyle;rounded=0;orthogonalLoop=1;jettySize=auto;html=1;entryX=0.5;entryY=0;entryDx=0;entryDy=0;" parent="WIyWlLk6GJQsqaUBKTNV-1" source="uDoisgnEJ3Sqodn6yVfs-4" target="uDoisgnEJ3Sqodn6yVfs-7" edge="1">
          <mxGeometry relative="1" as="geometry" />
        </mxCell>
        <mxCell id="uDoisgnEJ3Sqodn6yVfs-4" value="Blue lines:&lt;br&gt;- Angle&lt;br&gt;-Sentering&lt;br&gt;-Cropped out ROI" style="rounded=1;whiteSpace=wrap;html=1;" parent="WIyWlLk6GJQsqaUBKTNV-1" vertex="1">
          <mxGeometry x="-472" y="171" width="120" height="60" as="geometry" />
        </mxCell>
        <mxCell id="uDoisgnEJ3Sqodn6yVfs-5" style="edgeStyle=orthogonalEdgeStyle;rounded=0;orthogonalLoop=1;jettySize=auto;html=1;exitX=0.5;exitY=1;exitDx=0;exitDy=0;entryX=0.5;entryY=0;entryDx=0;entryDy=0;" parent="WIyWlLk6GJQsqaUBKTNV-1" source="uDoisgnEJ3Sqodn6yVfs-7" target="uDoisgnEJ3Sqodn6yVfs-11" edge="1">
          <mxGeometry relative="1" as="geometry" />
        </mxCell>
        <mxCell id="uDoisgnEJ3Sqodn6yVfs-6" style="edgeStyle=orthogonalEdgeStyle;rounded=0;orthogonalLoop=1;jettySize=auto;html=1;entryX=0;entryY=0.5;entryDx=0;entryDy=0;" parent="WIyWlLk6GJQsqaUBKTNV-1" source="uDoisgnEJ3Sqodn6yVfs-7" target="uDoisgnEJ3Sqodn6yVfs-8" edge="1">
          <mxGeometry relative="1" as="geometry" />
        </mxCell>
        <mxCell id="uDoisgnEJ3Sqodn6yVfs-7" value="Squares:&lt;br&gt;-def coordinates&lt;br&gt;-Template on ROI&lt;br&gt;- If senter template is in coordinate-&amp;gt; we add the Aoi to the square object" style="rounded=1;whiteSpace=wrap;html=1;" parent="WIyWlLk6GJQsqaUBKTNV-1" vertex="1">
          <mxGeometry x="-472" y="276" width="120" height="110" as="geometry" />
        </mxCell>
        <mxCell id="uDoisgnEJ3Sqodn6yVfs-8" value="Map objeckt:&lt;br&gt;drawing inn objects in map" style="rounded=1;whiteSpace=wrap;html=1;" parent="WIyWlLk6GJQsqaUBKTNV-1" vertex="1">
          <mxGeometry x="-252" y="271" width="110" height="120" as="geometry" />
        </mxCell>
        <mxCell id="uDoisgnEJ3Sqodn6yVfs-9" value="Autodriving:&lt;br&gt;- P/PI regulation on angle and sentering" style="rounded=1;whiteSpace=wrap;html=1;" parent="WIyWlLk6GJQsqaUBKTNV-1" vertex="1">
          <mxGeometry x="-482" y="51" width="140" height="80" as="geometry" />
        </mxCell>
        <mxCell id="uDoisgnEJ3Sqodn6yVfs-10" style="edgeStyle=orthogonalEdgeStyle;rounded=0;orthogonalLoop=1;jettySize=auto;html=1;entryX=0.5;entryY=1;entryDx=0;entryDy=0;" parent="WIyWlLk6GJQsqaUBKTNV-1" source="uDoisgnEJ3Sqodn6yVfs-11" target="uDoisgnEJ3Sqodn6yVfs-8" edge="1">
          <mxGeometry relative="1" as="geometry" />
        </mxCell>
        <mxCell id="uDoisgnEJ3Sqodn6yVfs-11" value="Manual:&lt;br&gt;Instead of using templates:&lt;br&gt;Manual contour and color chech for all objects." style="rounded=1;whiteSpace=wrap;html=1;" parent="WIyWlLk6GJQsqaUBKTNV-1" vertex="1">
          <mxGeometry x="-469.5" y="441" width="115" height="130" as="geometry" />
        </mxCell>
        <mxCell id="uDoisgnEJ3Sqodn6yVfs-16" style="edgeStyle=orthogonalEdgeStyle;rounded=0;orthogonalLoop=1;jettySize=auto;html=1;entryX=0.5;entryY=0;entryDx=0;entryDy=0;" parent="WIyWlLk6GJQsqaUBKTNV-1" source="uDoisgnEJ3Sqodn6yVfs-14" target="uDoisgnEJ3Sqodn6yVfs-15" edge="1">
          <mxGeometry relative="1" as="geometry" />
        </mxCell>
        <mxCell id="uDoisgnEJ3Sqodn6yVfs-14" value="&lt;span style=&quot;color: rgb(255 , 255 , 255)&quot;&gt;Seabed.find_roi()&lt;/span&gt;" style="ellipse;whiteSpace=wrap;html=1;fillColor=#6d8764;strokeColor=#3A5431;fontColor=#ffffff;" parent="WIyWlLk6GJQsqaUBKTNV-1" vertex="1">
          <mxGeometry x="1857.5" y="35" width="170" height="49" as="geometry" />
        </mxCell>
        <mxCell id="uDoisgnEJ3Sqodn6yVfs-40" style="edgeStyle=orthogonalEdgeStyle;rounded=0;orthogonalLoop=1;jettySize=auto;html=1;entryX=0.5;entryY=0;entryDx=0;entryDy=0;" parent="WIyWlLk6GJQsqaUBKTNV-1" source="uDoisgnEJ3Sqodn6yVfs-15" target="uDoisgnEJ3Sqodn6yVfs-32" edge="1">
          <mxGeometry relative="1" as="geometry" />
        </mxCell>
        <mxCell id="uDoisgnEJ3Sqodn6yVfs-15" value="Maskerer ut de blå linjene" style="rounded=0;whiteSpace=wrap;html=1;fillColor=#e3c800;strokeColor=#B09500;fontColor=#ffffff;" parent="WIyWlLk6GJQsqaUBKTNV-1" vertex="1">
          <mxGeometry x="1872.75" y="117" width="139.5" height="32" as="geometry" />
        </mxCell>
        <mxCell id="uDoisgnEJ3Sqodn6yVfs-43" style="edgeStyle=orthogonalEdgeStyle;rounded=0;orthogonalLoop=1;jettySize=auto;html=1;exitX=1;exitY=0.5;exitDx=0;exitDy=0;" parent="WIyWlLk6GJQsqaUBKTNV-1" source="uDoisgnEJ3Sqodn6yVfs-30" target="uDoisgnEJ3Sqodn6yVfs-38" edge="1">
          <mxGeometry relative="1" as="geometry" />
        </mxCell>
        <mxCell id="uDoisgnEJ3Sqodn6yVfs-47" value="" style="edgeStyle=orthogonalEdgeStyle;rounded=0;orthogonalLoop=1;jettySize=auto;html=1;" parent="WIyWlLk6GJQsqaUBKTNV-1" source="uDoisgnEJ3Sqodn6yVfs-30" target="uDoisgnEJ3Sqodn6yVfs-46" edge="1">
          <mxGeometry relative="1" as="geometry" />
        </mxCell>
        <mxCell id="uDoisgnEJ3Sqodn6yVfs-30" value="&lt;br&gt;Er linjene så&lt;br&gt;lange de skal&lt;br&gt;&amp;nbsp;være?" style="rhombus;whiteSpace=wrap;html=1;rounded=0;fontColor=#ffffff;strokeColor=#B09500;fillColor=#e3c800;align=center;" parent="WIyWlLk6GJQsqaUBKTNV-1" vertex="1">
          <mxGeometry x="1894.75" y="267.05" width="95.5" height="98" as="geometry" />
        </mxCell>
        <mxCell id="uDoisgnEJ3Sqodn6yVfs-35" style="edgeStyle=orthogonalEdgeStyle;rounded=0;orthogonalLoop=1;jettySize=auto;html=1;entryX=0.5;entryY=0;entryDx=0;entryDy=0;" parent="WIyWlLk6GJQsqaUBKTNV-1" source="uDoisgnEJ3Sqodn6yVfs-32" target="uDoisgnEJ3Sqodn6yVfs-30" edge="1">
          <mxGeometry relative="1" as="geometry" />
        </mxCell>
        <mxCell id="uDoisgnEJ3Sqodn6yVfs-32" value="Finn de to største konturene&amp;nbsp;" style="rounded=0;whiteSpace=wrap;html=1;fillColor=#e3c800;strokeColor=#B09500;fontColor=#ffffff;" parent="WIyWlLk6GJQsqaUBKTNV-1" vertex="1">
          <mxGeometry x="1872.75" y="205.5" width="139.5" height="32" as="geometry" />
        </mxCell>
        <mxCell id="uDoisgnEJ3Sqodn6yVfs-44" style="edgeStyle=orthogonalEdgeStyle;rounded=0;orthogonalLoop=1;jettySize=auto;html=1;entryX=0.5;entryY=0;entryDx=0;entryDy=0;" parent="WIyWlLk6GJQsqaUBKTNV-1" source="uDoisgnEJ3Sqodn6yVfs-38" target="uDoisgnEJ3Sqodn6yVfs-32" edge="1">
          <mxGeometry relative="1" as="geometry">
            <mxPoint x="2145.7499999999995" y="143.63218741581358" as="targetPoint" />
            <Array as="points">
              <mxPoint x="2100" y="175" />
              <mxPoint x="1943" y="175" />
            </Array>
          </mxGeometry>
        </mxCell>
        <mxCell id="uDoisgnEJ3Sqodn6yVfs-38" value="Koble sammen brutte linjer ved hjelp av morfologisk åpning" style="rounded=0;whiteSpace=wrap;html=1;fillColor=#e3c800;strokeColor=#B09500;fontColor=#ffffff;" parent="WIyWlLk6GJQsqaUBKTNV-1" vertex="1">
          <mxGeometry x="2030" y="201" width="139.5" height="41" as="geometry" />
        </mxCell>
        <mxCell id="uDoisgnEJ3Sqodn6yVfs-41" value="&amp;nbsp;Nei" style="text;html=1;align=center;verticalAlign=middle;resizable=0;points=[];autosize=1;" parent="WIyWlLk6GJQsqaUBKTNV-1" vertex="1">
          <mxGeometry x="1990.25" y="300" width="31" height="18" as="geometry" />
        </mxCell>
        <mxCell id="uDoisgnEJ3Sqodn6yVfs-42" value="Ja" style="text;html=1;align=center;verticalAlign=middle;resizable=0;points=[];autosize=1;" parent="WIyWlLk6GJQsqaUBKTNV-1" vertex="1">
          <mxGeometry x="1945" y="364.25" width="23" height="18" as="geometry" />
        </mxCell>
        <mxCell id="uDoisgnEJ3Sqodn6yVfs-49" value="" style="edgeStyle=orthogonalEdgeStyle;rounded=0;orthogonalLoop=1;jettySize=auto;html=1;" parent="WIyWlLk6GJQsqaUBKTNV-1" source="uDoisgnEJ3Sqodn6yVfs-46" target="uDoisgnEJ3Sqodn6yVfs-48" edge="1">
          <mxGeometry relative="1" as="geometry" />
        </mxCell>
        <mxCell id="uDoisgnEJ3Sqodn6yVfs-46" value="Finner minste omkransende rektangel for hver av de blå linjene" style="whiteSpace=wrap;html=1;rounded=0;fontColor=#ffffff;strokeColor=#B09500;fillColor=#e3c800;" parent="WIyWlLk6GJQsqaUBKTNV-1" vertex="1">
          <mxGeometry x="1882.5" y="399" width="120" height="60" as="geometry" />
        </mxCell>
        <mxCell id="uDoisgnEJ3Sqodn6yVfs-53" value="" style="edgeStyle=orthogonalEdgeStyle;rounded=0;orthogonalLoop=1;jettySize=auto;html=1;" parent="WIyWlLk6GJQsqaUBKTNV-1" source="uDoisgnEJ3Sqodn6yVfs-48" target="uDoisgnEJ3Sqodn6yVfs-52" edge="1">
          <mxGeometry relative="1" as="geometry" />
        </mxCell>
        <mxCell id="uDoisgnEJ3Sqodn6yVfs-48" value="Fra de blå linjenes omkransende rektangel finner&amp;nbsp; vi hjørnepunktene som omkranser ROI&amp;nbsp;" style="whiteSpace=wrap;html=1;rounded=0;fontColor=#ffffff;strokeColor=#B09500;fillColor=#e3c800;" parent="WIyWlLk6GJQsqaUBKTNV-1" vertex="1">
          <mxGeometry x="1882.5" y="492.25" width="120.5" height="85" as="geometry" />
        </mxCell>
        <mxCell id="uDoisgnEJ3Sqodn6yVfs-57" style="edgeStyle=orthogonalEdgeStyle;rounded=0;orthogonalLoop=1;jettySize=auto;html=1;entryX=0.5;entryY=0;entryDx=0;entryDy=0;" parent="WIyWlLk6GJQsqaUBKTNV-1" source="uDoisgnEJ3Sqodn6yVfs-52" target="uDoisgnEJ3Sqodn6yVfs-56" edge="1">
          <mxGeometry relative="1" as="geometry" />
        </mxCell>
        <mxCell id="uDoisgnEJ3Sqodn6yVfs-52" value="Bruker perstektiv-&lt;br&gt;transformasjon til å rette opp ROI" style="whiteSpace=wrap;html=1;rounded=0;fontColor=#ffffff;strokeColor=#B09500;fillColor=#e3c800;" parent="WIyWlLk6GJQsqaUBKTNV-1" vertex="1">
          <mxGeometry x="1882.5" y="609" width="120" height="60" as="geometry" />
        </mxCell>
        <mxCell id="uDoisgnEJ3Sqodn6yVfs-56" value="Returner" style="ellipse;whiteSpace=wrap;html=1;fillColor=#6d8764;strokeColor=#3A5431;fontColor=#ffffff;" parent="WIyWlLk6GJQsqaUBKTNV-1" vertex="1">
          <mxGeometry x="1862" y="709" width="161" height="49" as="geometry" />
        </mxCell>
        <mxCell id="uDoisgnEJ3Sqodn6yVfs-61" style="edgeStyle=orthogonalEdgeStyle;rounded=0;orthogonalLoop=1;jettySize=auto;html=1;entryX=0.5;entryY=0;entryDx=0;entryDy=0;" parent="WIyWlLk6GJQsqaUBKTNV-1" source="uDoisgnEJ3Sqodn6yVfs-58" target="uDoisgnEJ3Sqodn6yVfs-60" edge="1">
          <mxGeometry relative="1" as="geometry" />
        </mxCell>
        <mxCell id="uDoisgnEJ3Sqodn6yVfs-58" value="&lt;span style=&quot;color: rgb(255 , 255 , 255)&quot;&gt;Seabed.split_roi_into_squares()&lt;/span&gt;" style="ellipse;whiteSpace=wrap;html=1;fillColor=#6d8764;strokeColor=#3A5431;fontColor=#ffffff;" parent="WIyWlLk6GJQsqaUBKTNV-1" vertex="1">
          <mxGeometry x="2268.5" y="35" width="170" height="49" as="geometry" />
        </mxCell>
        <mxCell id="uDoisgnEJ3Sqodn6yVfs-67" value="" style="edgeStyle=orthogonalEdgeStyle;rounded=0;orthogonalLoop=1;jettySize=auto;html=1;" parent="WIyWlLk6GJQsqaUBKTNV-1" source="uDoisgnEJ3Sqodn6yVfs-60" target="uDoisgnEJ3Sqodn6yVfs-66" edge="1">
          <mxGeometry relative="1" as="geometry" />
        </mxCell>
        <mxCell id="uDoisgnEJ3Sqodn6yVfs-60" value="Definerer konstanter til oppdeling av ROI" style="rounded=0;whiteSpace=wrap;html=1;fillColor=#e3c800;strokeColor=#B09500;fontColor=#ffffff;" parent="WIyWlLk6GJQsqaUBKTNV-1" vertex="1">
          <mxGeometry x="2283.75" y="117" width="139.5" height="32" as="geometry" />
        </mxCell>
        <mxCell id="uDoisgnEJ3Sqodn6yVfs-82" value="" style="edgeStyle=orthogonalEdgeStyle;rounded=0;orthogonalLoop=1;jettySize=auto;html=1;" parent="WIyWlLk6GJQsqaUBKTNV-1" source="uDoisgnEJ3Sqodn6yVfs-66" target="uDoisgnEJ3Sqodn6yVfs-70" edge="1">
          <mxGeometry relative="1" as="geometry" />
        </mxCell>
        <mxCell id="uDoisgnEJ3Sqodn6yVfs-106" style="edgeStyle=orthogonalEdgeStyle;rounded=0;orthogonalLoop=1;jettySize=auto;html=1;" parent="WIyWlLk6GJQsqaUBKTNV-1" source="uDoisgnEJ3Sqodn6yVfs-66" target="uDoisgnEJ3Sqodn6yVfs-86" edge="1">
          <mxGeometry relative="1" as="geometry">
            <mxPoint x="2535.6666259765625" y="237.54999999999995" as="targetPoint" />
          </mxGeometry>
        </mxCell>
        <mxCell id="uDoisgnEJ3Sqodn6yVfs-66" value="&lt;br&gt;Går gjennom for løkke.&lt;br&gt;3x9" style="rhombus;whiteSpace=wrap;html=1;rounded=0;fontColor=#ffffff;strokeColor=#B09500;fillColor=#e3c800;" parent="WIyWlLk6GJQsqaUBKTNV-1" vertex="1">
          <mxGeometry x="2310.75" y="194.05" width="85.5" height="87" as="geometry" />
        </mxCell>
        <mxCell id="uDoisgnEJ3Sqodn6yVfs-129" style="edgeStyle=orthogonalEdgeStyle;rounded=0;orthogonalLoop=1;jettySize=auto;html=1;" parent="WIyWlLk6GJQsqaUBKTNV-1" source="uDoisgnEJ3Sqodn6yVfs-70" target="uDoisgnEJ3Sqodn6yVfs-126" edge="1">
          <mxGeometry relative="1" as="geometry" />
        </mxCell>
        <mxCell id="uDoisgnEJ3Sqodn6yVfs-70" value="Oppretter en enhet(rute) av klassen Square" style="rounded=0;whiteSpace=wrap;html=1;fillColor=#e3c800;strokeColor=#B09500;fontColor=#ffffff;" parent="WIyWlLk6GJQsqaUBKTNV-1" vertex="1">
          <mxGeometry x="2283.75" y="299.55" width="139.5" height="32" as="geometry" />
        </mxCell>
        <mxCell id="uDoisgnEJ3Sqodn6yVfs-72" style="edgeStyle=orthogonalEdgeStyle;rounded=0;orthogonalLoop=1;jettySize=auto;html=1;entryX=0.5;entryY=0;entryDx=0;entryDy=0;" parent="WIyWlLk6GJQsqaUBKTNV-1" source="uDoisgnEJ3Sqodn6yVfs-73" target="uDoisgnEJ3Sqodn6yVfs-75" edge="1">
          <mxGeometry relative="1" as="geometry" />
        </mxCell>
        <mxCell id="uDoisgnEJ3Sqodn6yVfs-73" value="&lt;span style=&quot;color: rgb(255 , 255 , 255)&quot;&gt;Seabed.draw_map()&lt;/span&gt;" style="ellipse;whiteSpace=wrap;html=1;fillColor=#6d8764;strokeColor=#3A5431;fontColor=#ffffff;" parent="WIyWlLk6GJQsqaUBKTNV-1" vertex="1">
          <mxGeometry x="3408" y="29" width="161" height="49" as="geometry" />
        </mxCell>
        <mxCell id="uDoisgnEJ3Sqodn6yVfs-74" value="" style="edgeStyle=orthogonalEdgeStyle;rounded=0;orthogonalLoop=1;jettySize=auto;html=1;" parent="WIyWlLk6GJQsqaUBKTNV-1" source="uDoisgnEJ3Sqodn6yVfs-75" target="uDoisgnEJ3Sqodn6yVfs-77" edge="1">
          <mxGeometry relative="1" as="geometry" />
        </mxCell>
        <mxCell id="uDoisgnEJ3Sqodn6yVfs-75" value="Definere nødvendige konstater til å utføre tegning på kartet." style="rounded=0;whiteSpace=wrap;html=1;fillColor=#e3c800;strokeColor=#B09500;fontColor=#ffffff;" parent="WIyWlLk6GJQsqaUBKTNV-1" vertex="1">
          <mxGeometry x="3418.75" y="102" width="139.5" height="47" as="geometry" />
        </mxCell>
        <mxCell id="uDoisgnEJ3Sqodn6yVfs-95" value="" style="edgeStyle=orthogonalEdgeStyle;rounded=0;orthogonalLoop=1;jettySize=auto;html=1;" parent="WIyWlLk6GJQsqaUBKTNV-1" source="uDoisgnEJ3Sqodn6yVfs-77" target="uDoisgnEJ3Sqodn6yVfs-94" edge="1">
          <mxGeometry relative="1" as="geometry" />
        </mxCell>
        <mxCell id="uDoisgnEJ3Sqodn6yVfs-120" style="edgeStyle=orthogonalEdgeStyle;rounded=0;orthogonalLoop=1;jettySize=auto;html=1;entryX=0.5;entryY=0;entryDx=0;entryDy=0;" parent="WIyWlLk6GJQsqaUBKTNV-1" source="uDoisgnEJ3Sqodn6yVfs-77" target="uDoisgnEJ3Sqodn6yVfs-121" edge="1">
          <mxGeometry relative="1" as="geometry">
            <mxPoint x="3868" y="356" as="targetPoint" />
          </mxGeometry>
        </mxCell>
        <mxCell id="uDoisgnEJ3Sqodn6yVfs-77" value="For løkke:&lt;br&gt;gjennom ruteliste" style="rhombus;whiteSpace=wrap;html=1;rounded=0;fontColor=#ffffff;strokeColor=#B09500;fillColor=#e3c800;" parent="WIyWlLk6GJQsqaUBKTNV-1" vertex="1">
          <mxGeometry x="3445.75" y="172" width="85.5" height="87" as="geometry" />
        </mxCell>
        <mxCell id="uDoisgnEJ3Sqodn6yVfs-86" value="Returner" style="ellipse;whiteSpace=wrap;html=1;fillColor=#6d8764;strokeColor=#3A5431;fontColor=#ffffff;" parent="WIyWlLk6GJQsqaUBKTNV-1" vertex="1">
          <mxGeometry x="2455" y="297" width="161" height="49" as="geometry" />
        </mxCell>
        <mxCell id="uDoisgnEJ3Sqodn6yVfs-105" style="edgeStyle=orthogonalEdgeStyle;rounded=0;orthogonalLoop=1;jettySize=auto;html=1;entryX=0;entryY=0.5;entryDx=0;entryDy=0;exitX=0.5;exitY=1;exitDx=0;exitDy=0;" parent="WIyWlLk6GJQsqaUBKTNV-1" source="uDoisgnEJ3Sqodn6yVfs-89" target="uDoisgnEJ3Sqodn6yVfs-66" edge="1">
          <mxGeometry relative="1" as="geometry">
            <mxPoint x="2233.6665954589844" y="236.33334350585938" as="targetPoint" />
            <mxPoint x="2354" y="415" as="sourcePoint" />
            <Array as="points">
              <mxPoint x="2354" y="476" />
              <mxPoint x="2264" y="476" />
              <mxPoint x="2264" y="238" />
            </Array>
          </mxGeometry>
        </mxCell>
        <mxCell id="uDoisgnEJ3Sqodn6yVfs-89" value="Legger ruta til i en liste" style="rounded=0;whiteSpace=wrap;html=1;fillColor=#e3c800;strokeColor=#B09500;fontColor=#ffffff;" parent="WIyWlLk6GJQsqaUBKTNV-1" vertex="1">
          <mxGeometry x="2284" y="419.00000000000006" width="139.5" height="33.05" as="geometry" />
        </mxCell>
        <mxCell id="uDoisgnEJ3Sqodn6yVfs-97" value="" style="edgeStyle=orthogonalEdgeStyle;rounded=0;orthogonalLoop=1;jettySize=auto;html=1;" parent="WIyWlLk6GJQsqaUBKTNV-1" source="uDoisgnEJ3Sqodn6yVfs-94" target="uDoisgnEJ3Sqodn6yVfs-96" edge="1">
          <mxGeometry relative="1" as="geometry" />
        </mxCell>
        <mxCell id="uDoisgnEJ3Sqodn6yVfs-94" value="Funn av svamp?" style="rhombus;whiteSpace=wrap;html=1;rounded=0;fontColor=#ffffff;strokeColor=#B09500;fillColor=#e3c800;" parent="WIyWlLk6GJQsqaUBKTNV-1" vertex="1">
          <mxGeometry x="3445.75" y="287" width="85.5" height="87" as="geometry" />
        </mxCell>
        <mxCell id="uDoisgnEJ3Sqodn6yVfs-100" style="edgeStyle=orthogonalEdgeStyle;rounded=0;orthogonalLoop=1;jettySize=auto;html=1;" parent="WIyWlLk6GJQsqaUBKTNV-1" source="uDoisgnEJ3Sqodn6yVfs-96" target="uDoisgnEJ3Sqodn6yVfs-98" edge="1">
          <mxGeometry relative="1" as="geometry" />
        </mxCell>
        <mxCell id="uDoisgnEJ3Sqodn6yVfs-96" value="Funn av sjøtjerne?" style="rhombus;whiteSpace=wrap;html=1;rounded=0;fontColor=#ffffff;strokeColor=#B09500;fillColor=#e3c800;" parent="WIyWlLk6GJQsqaUBKTNV-1" vertex="1">
          <mxGeometry x="3445.75" y="400" width="85.5" height="87" as="geometry" />
        </mxCell>
        <mxCell id="uDoisgnEJ3Sqodn6yVfs-102" value="" style="edgeStyle=orthogonalEdgeStyle;rounded=0;orthogonalLoop=1;jettySize=auto;html=1;" parent="WIyWlLk6GJQsqaUBKTNV-1" source="uDoisgnEJ3Sqodn6yVfs-98" target="uDoisgnEJ3Sqodn6yVfs-101" edge="1">
          <mxGeometry relative="1" as="geometry" />
        </mxCell>
        <mxCell id="uDoisgnEJ3Sqodn6yVfs-98" value="Funn av planteplass?" style="rhombus;whiteSpace=wrap;html=1;rounded=0;fontColor=#ffffff;strokeColor=#B09500;fillColor=#e3c800;" parent="WIyWlLk6GJQsqaUBKTNV-1" vertex="1">
          <mxGeometry x="3445.75" y="503" width="85.5" height="87" as="geometry" />
        </mxCell>
        <mxCell id="uDoisgnEJ3Sqodn6yVfs-103" style="edgeStyle=orthogonalEdgeStyle;rounded=0;orthogonalLoop=1;jettySize=auto;html=1;entryX=0;entryY=0.5;entryDx=0;entryDy=0;" parent="WIyWlLk6GJQsqaUBKTNV-1" source="uDoisgnEJ3Sqodn6yVfs-101" target="uDoisgnEJ3Sqodn6yVfs-77" edge="1">
          <mxGeometry relative="1" as="geometry">
            <mxPoint x="3402" y="256" as="targetPoint" />
            <Array as="points">
              <mxPoint x="3489" y="725" />
              <mxPoint x="3426" y="725" />
              <mxPoint x="3426" y="216" />
            </Array>
          </mxGeometry>
        </mxCell>
        <mxCell id="uDoisgnEJ3Sqodn6yVfs-101" value="Funn av koralrev?" style="rhombus;whiteSpace=wrap;html=1;rounded=0;fontColor=#ffffff;strokeColor=#B09500;fillColor=#e3c800;" parent="WIyWlLk6GJQsqaUBKTNV-1" vertex="1">
          <mxGeometry x="3445.75" y="615" width="85.5" height="87" as="geometry" />
        </mxCell>
        <mxCell id="uDoisgnEJ3Sqodn6yVfs-107" value="Ferdig med løkke" style="text;html=1;align=center;verticalAlign=middle;resizable=0;points=[];autosize=1;" parent="WIyWlLk6GJQsqaUBKTNV-1" vertex="1">
          <mxGeometry x="2408" y="218.5" width="103" height="18" as="geometry" />
        </mxCell>
        <mxCell id="uDoisgnEJ3Sqodn6yVfs-109" style="edgeStyle=orthogonalEdgeStyle;rounded=0;orthogonalLoop=1;jettySize=auto;html=1;" parent="WIyWlLk6GJQsqaUBKTNV-1" target="uDoisgnEJ3Sqodn6yVfs-110" edge="1">
          <mxGeometry relative="1" as="geometry">
            <mxPoint x="3531" y="331" as="sourcePoint" />
          </mxGeometry>
        </mxCell>
        <mxCell id="uDoisgnEJ3Sqodn6yVfs-243" style="edgeStyle=orthogonalEdgeStyle;rounded=0;orthogonalLoop=1;jettySize=auto;html=1;entryX=0.5;entryY=0;entryDx=0;entryDy=0;startArrow=none;startFill=0;endArrow=classicThin;endFill=1;" parent="WIyWlLk6GJQsqaUBKTNV-1" source="uDoisgnEJ3Sqodn6yVfs-110" target="uDoisgnEJ3Sqodn6yVfs-96" edge="1">
          <mxGeometry relative="1" as="geometry">
            <Array as="points">
              <mxPoint x="3665" y="387" />
              <mxPoint x="3489" y="387" />
            </Array>
          </mxGeometry>
        </mxCell>
        <mxCell id="uDoisgnEJ3Sqodn6yVfs-110" value="Tegner grønn sirkel" style="rounded=0;whiteSpace=wrap;html=1;fillColor=#e3c800;strokeColor=#B09500;fontColor=#ffffff;" parent="WIyWlLk6GJQsqaUBKTNV-1" vertex="1">
          <mxGeometry x="3595" y="315" width="139.5" height="32" as="geometry" />
        </mxCell>
        <mxCell id="uDoisgnEJ3Sqodn6yVfs-113" style="edgeStyle=orthogonalEdgeStyle;rounded=0;orthogonalLoop=1;jettySize=auto;html=1;exitX=1;exitY=0.5;exitDx=0;exitDy=0;" parent="WIyWlLk6GJQsqaUBKTNV-1" source="uDoisgnEJ3Sqodn6yVfs-96" target="uDoisgnEJ3Sqodn6yVfs-114" edge="1">
          <mxGeometry relative="1" as="geometry">
            <mxPoint x="3536" y="444" as="sourcePoint" />
          </mxGeometry>
        </mxCell>
        <mxCell id="uDoisgnEJ3Sqodn6yVfs-242" style="edgeStyle=orthogonalEdgeStyle;rounded=0;orthogonalLoop=1;jettySize=auto;html=1;entryX=0.5;entryY=0;entryDx=0;entryDy=0;startArrow=none;startFill=0;endArrow=classicThin;endFill=1;" parent="WIyWlLk6GJQsqaUBKTNV-1" source="uDoisgnEJ3Sqodn6yVfs-114" target="uDoisgnEJ3Sqodn6yVfs-98" edge="1">
          <mxGeometry relative="1" as="geometry">
            <Array as="points">
              <mxPoint x="3665" y="491" />
              <mxPoint x="3489" y="491" />
            </Array>
          </mxGeometry>
        </mxCell>
        <mxCell id="uDoisgnEJ3Sqodn6yVfs-114" value="Tegner blå sirkel" style="rounded=0;whiteSpace=wrap;html=1;fillColor=#e3c800;strokeColor=#B09500;fontColor=#ffffff;" parent="WIyWlLk6GJQsqaUBKTNV-1" vertex="1">
          <mxGeometry x="3595" y="427.5" width="139.5" height="32" as="geometry" />
        </mxCell>
        <mxCell id="uDoisgnEJ3Sqodn6yVfs-115" style="edgeStyle=orthogonalEdgeStyle;rounded=0;orthogonalLoop=1;jettySize=auto;html=1;exitX=1;exitY=0.5;exitDx=0;exitDy=0;" parent="WIyWlLk6GJQsqaUBKTNV-1" source="uDoisgnEJ3Sqodn6yVfs-98" target="uDoisgnEJ3Sqodn6yVfs-116" edge="1">
          <mxGeometry relative="1" as="geometry">
            <mxPoint x="3534" y="547" as="sourcePoint" />
          </mxGeometry>
        </mxCell>
        <mxCell id="uDoisgnEJ3Sqodn6yVfs-244" style="edgeStyle=orthogonalEdgeStyle;rounded=0;orthogonalLoop=1;jettySize=auto;html=1;entryX=0.5;entryY=0;entryDx=0;entryDy=0;startArrow=none;startFill=0;endArrow=classicThin;endFill=1;" parent="WIyWlLk6GJQsqaUBKTNV-1" source="uDoisgnEJ3Sqodn6yVfs-116" target="uDoisgnEJ3Sqodn6yVfs-101" edge="1">
          <mxGeometry relative="1" as="geometry">
            <Array as="points">
              <mxPoint x="3668" y="603" />
              <mxPoint x="3489" y="603" />
            </Array>
          </mxGeometry>
        </mxCell>
        <mxCell id="uDoisgnEJ3Sqodn6yVfs-116" value="Tegner gul sirkel" style="rounded=0;whiteSpace=wrap;html=1;fillColor=#e3c800;strokeColor=#B09500;fontColor=#ffffff;" parent="WIyWlLk6GJQsqaUBKTNV-1" vertex="1">
          <mxGeometry x="3597.75" y="530.5" width="139.5" height="32" as="geometry" />
        </mxCell>
        <mxCell id="uDoisgnEJ3Sqodn6yVfs-118" style="edgeStyle=orthogonalEdgeStyle;rounded=0;orthogonalLoop=1;jettySize=auto;html=1;exitX=1;exitY=0.5;exitDx=0;exitDy=0;" parent="WIyWlLk6GJQsqaUBKTNV-1" source="uDoisgnEJ3Sqodn6yVfs-101" target="uDoisgnEJ3Sqodn6yVfs-119" edge="1">
          <mxGeometry relative="1" as="geometry">
            <mxPoint x="3534" y="658.5" as="sourcePoint" />
          </mxGeometry>
        </mxCell>
        <mxCell id="uDoisgnEJ3Sqodn6yVfs-245" style="edgeStyle=orthogonalEdgeStyle;rounded=0;orthogonalLoop=1;jettySize=auto;html=1;entryX=0;entryY=0.5;entryDx=0;entryDy=0;startArrow=none;startFill=0;endArrow=classicThin;endFill=1;" parent="WIyWlLk6GJQsqaUBKTNV-1" source="uDoisgnEJ3Sqodn6yVfs-119" target="uDoisgnEJ3Sqodn6yVfs-77" edge="1">
          <mxGeometry relative="1" as="geometry">
            <Array as="points">
              <mxPoint x="3668" y="725" />
              <mxPoint x="3426" y="725" />
              <mxPoint x="3426" y="215" />
            </Array>
          </mxGeometry>
        </mxCell>
        <mxCell id="uDoisgnEJ3Sqodn6yVfs-119" value="Legger til i koralrev liste" style="rounded=0;whiteSpace=wrap;html=1;fillColor=#e3c800;strokeColor=#B09500;fontColor=#ffffff;" parent="WIyWlLk6GJQsqaUBKTNV-1" vertex="1">
          <mxGeometry x="3597.75" y="642.5" width="139.5" height="32" as="geometry" />
        </mxCell>
        <mxCell id="K7vVqPGRjOa1dxgQFs9q-4" value="" style="edgeStyle=orthogonalEdgeStyle;rounded=0;orthogonalLoop=1;jettySize=auto;html=1;" parent="WIyWlLk6GJQsqaUBKTNV-1" source="uDoisgnEJ3Sqodn6yVfs-121" target="K7vVqPGRjOa1dxgQFs9q-3" edge="1">
          <mxGeometry relative="1" as="geometry" />
        </mxCell>
        <mxCell id="uDoisgnEJ3Sqodn6yVfs-121" value="Tegner rød ellipse som dekker over korallrev reutene" style="rounded=0;whiteSpace=wrap;html=1;fillColor=#e3c800;strokeColor=#B09500;fontColor=#ffffff;" parent="WIyWlLk6GJQsqaUBKTNV-1" vertex="1">
          <mxGeometry x="3778" y="315" width="168" height="32" as="geometry" />
        </mxCell>
        <mxCell id="uDoisgnEJ3Sqodn6yVfs-125" style="edgeStyle=orthogonalEdgeStyle;rounded=0;orthogonalLoop=1;jettySize=auto;html=1;entryX=0.5;entryY=0;entryDx=0;entryDy=0;" parent="WIyWlLk6GJQsqaUBKTNV-1" target="uDoisgnEJ3Sqodn6yVfs-124" edge="1">
          <mxGeometry relative="1" as="geometry">
            <mxPoint x="3862" y="465" as="sourcePoint" />
          </mxGeometry>
        </mxCell>
        <mxCell id="uDoisgnEJ3Sqodn6yVfs-124" value="Returner" style="ellipse;whiteSpace=wrap;html=1;fillColor=#6d8764;strokeColor=#3A5431;fontColor=#ffffff;" parent="WIyWlLk6GJQsqaUBKTNV-1" vertex="1">
          <mxGeometry x="3781.5" y="527" width="161" height="49" as="geometry" />
        </mxCell>
        <mxCell id="uDoisgnEJ3Sqodn6yVfs-127" value="" style="edgeStyle=orthogonalEdgeStyle;rounded=0;orthogonalLoop=1;jettySize=auto;html=1;" parent="WIyWlLk6GJQsqaUBKTNV-1" source="uDoisgnEJ3Sqodn6yVfs-126" target="uDoisgnEJ3Sqodn6yVfs-89" edge="1">
          <mxGeometry relative="1" as="geometry" />
        </mxCell>
        <mxCell id="uDoisgnEJ3Sqodn6yVfs-126" value="rute.scan_for_objects()" style="rounded=0;whiteSpace=wrap;html=1;fillColor=#6d8764;strokeColor=#3A5431;fontColor=#ffffff;" parent="WIyWlLk6GJQsqaUBKTNV-1" vertex="1">
          <mxGeometry x="2284" y="364.25" width="139.25" height="31.5" as="geometry" />
        </mxCell>
        <mxCell id="uDoisgnEJ3Sqodn6yVfs-131" value="&lt;span style=&quot;color: rgb(255 , 255 , 255)&quot;&gt;Square.scan_for_objects()&lt;/span&gt;" style="ellipse;whiteSpace=wrap;html=1;fillColor=#6d8764;strokeColor=#3A5431;fontColor=#ffffff;" parent="WIyWlLk6GJQsqaUBKTNV-1" vertex="1">
          <mxGeometry x="2740" y="64" width="170" height="49" as="geometry" />
        </mxCell>
        <mxCell id="uDoisgnEJ3Sqodn6yVfs-148" style="edgeStyle=orthogonalEdgeStyle;rounded=0;orthogonalLoop=1;jettySize=auto;html=1;entryX=0.48;entryY=0.988;entryDx=0;entryDy=0;entryPerimeter=0;startArrow=classicThin;startFill=1;endArrow=none;endFill=0;exitX=0.5;exitY=0;exitDx=0;exitDy=0;" parent="WIyWlLk6GJQsqaUBKTNV-1" source="uDoisgnEJ3Sqodn6yVfs-149" target="uDoisgnEJ3Sqodn6yVfs-131" edge="1">
          <mxGeometry relative="1" as="geometry">
            <mxPoint x="2822" y="130" as="sourcePoint" />
          </mxGeometry>
        </mxCell>
        <mxCell id="uDoisgnEJ3Sqodn6yVfs-152" style="edgeStyle=orthogonalEdgeStyle;rounded=0;orthogonalLoop=1;jettySize=auto;html=1;entryX=0;entryY=0.5;entryDx=0;entryDy=0;startArrow=none;startFill=0;endArrow=classicThin;endFill=1;" parent="WIyWlLk6GJQsqaUBKTNV-1" source="uDoisgnEJ3Sqodn6yVfs-135" target="uDoisgnEJ3Sqodn6yVfs-151" edge="1">
          <mxGeometry relative="1" as="geometry" />
        </mxCell>
        <mxCell id="uDoisgnEJ3Sqodn6yVfs-163" style="edgeStyle=orthogonalEdgeStyle;rounded=0;orthogonalLoop=1;jettySize=auto;html=1;entryX=0.5;entryY=0;entryDx=0;entryDy=0;startArrow=none;startFill=0;endArrow=classicThin;endFill=1;" parent="WIyWlLk6GJQsqaUBKTNV-1" source="uDoisgnEJ3Sqodn6yVfs-135" target="uDoisgnEJ3Sqodn6yVfs-138" edge="1">
          <mxGeometry relative="1" as="geometry" />
        </mxCell>
        <mxCell id="uDoisgnEJ3Sqodn6yVfs-135" value="Funn?" style="rhombus;whiteSpace=wrap;html=1;rounded=0;fontColor=#ffffff;strokeColor=#B09500;fillColor=#e3c800;" parent="WIyWlLk6GJQsqaUBKTNV-1" vertex="1">
          <mxGeometry x="2779" y="236.5" width="85.5" height="87" as="geometry" />
        </mxCell>
        <mxCell id="uDoisgnEJ3Sqodn6yVfs-157" style="edgeStyle=orthogonalEdgeStyle;rounded=0;orthogonalLoop=1;jettySize=auto;html=1;entryX=0;entryY=0.5;entryDx=0;entryDy=0;startArrow=none;startFill=0;endArrow=classicThin;endFill=1;" parent="WIyWlLk6GJQsqaUBKTNV-1" source="uDoisgnEJ3Sqodn6yVfs-138" target="uDoisgnEJ3Sqodn6yVfs-154" edge="1">
          <mxGeometry relative="1" as="geometry" />
        </mxCell>
        <mxCell id="uDoisgnEJ3Sqodn6yVfs-161" style="edgeStyle=orthogonalEdgeStyle;rounded=0;orthogonalLoop=1;jettySize=auto;html=1;entryX=0.5;entryY=0;entryDx=0;entryDy=0;startArrow=none;startFill=0;endArrow=classicThin;endFill=1;" parent="WIyWlLk6GJQsqaUBKTNV-1" source="uDoisgnEJ3Sqodn6yVfs-138" target="uDoisgnEJ3Sqodn6yVfs-158" edge="1">
          <mxGeometry relative="1" as="geometry" />
        </mxCell>
        <mxCell id="uDoisgnEJ3Sqodn6yVfs-138" value="Funn?" style="rhombus;whiteSpace=wrap;html=1;rounded=0;fontColor=#ffffff;strokeColor=#B09500;fillColor=#e3c800;" parent="WIyWlLk6GJQsqaUBKTNV-1" vertex="1">
          <mxGeometry x="2779" y="346" width="85.5" height="87" as="geometry" />
        </mxCell>
        <mxCell id="uDoisgnEJ3Sqodn6yVfs-150" style="edgeStyle=orthogonalEdgeStyle;rounded=0;orthogonalLoop=1;jettySize=auto;html=1;entryX=0.5;entryY=0;entryDx=0;entryDy=0;startArrow=none;startFill=0;endArrow=classicThin;endFill=1;" parent="WIyWlLk6GJQsqaUBKTNV-1" source="uDoisgnEJ3Sqodn6yVfs-149" target="uDoisgnEJ3Sqodn6yVfs-135" edge="1">
          <mxGeometry relative="1" as="geometry" />
        </mxCell>
        <mxCell id="uDoisgnEJ3Sqodn6yVfs-149" value="Square.find_designated_&lt;br&gt;plantingarea()" style="rounded=0;whiteSpace=wrap;html=1;fillColor=#6d8764;strokeColor=#3A5431;fontColor=#ffffff;" parent="WIyWlLk6GJQsqaUBKTNV-1" vertex="1">
          <mxGeometry x="2747.81" y="145" width="147.88" height="31.5" as="geometry" />
        </mxCell>
        <mxCell id="uDoisgnEJ3Sqodn6yVfs-151" value="Square.find_sestar()" style="rounded=0;whiteSpace=wrap;html=1;fillColor=#6d8764;strokeColor=#3A5431;fontColor=#ffffff;" parent="WIyWlLk6GJQsqaUBKTNV-1" vertex="1">
          <mxGeometry x="2910" y="264.25" width="147.88" height="31.5" as="geometry" />
        </mxCell>
        <mxCell id="uDoisgnEJ3Sqodn6yVfs-153" value="Square.find_sponge()" style="rounded=0;whiteSpace=wrap;html=1;fillColor=#6d8764;strokeColor=#3A5431;fontColor=#ffffff;" parent="WIyWlLk6GJQsqaUBKTNV-1" vertex="1">
          <mxGeometry x="2910" y="480.75" width="147.88" height="31.5" as="geometry" />
        </mxCell>
        <mxCell id="uDoisgnEJ3Sqodn6yVfs-154" value="Square.find_coral_reef()" style="rounded=0;whiteSpace=wrap;html=1;fillColor=#6d8764;strokeColor=#3A5431;fontColor=#ffffff;" parent="WIyWlLk6GJQsqaUBKTNV-1" vertex="1">
          <mxGeometry x="2910" y="374" width="147.88" height="31.5" as="geometry" />
        </mxCell>
        <mxCell id="uDoisgnEJ3Sqodn6yVfs-162" style="edgeStyle=orthogonalEdgeStyle;rounded=0;orthogonalLoop=1;jettySize=auto;html=1;entryX=0;entryY=0.5;entryDx=0;entryDy=0;startArrow=none;startFill=0;endArrow=classicThin;endFill=1;" parent="WIyWlLk6GJQsqaUBKTNV-1" source="uDoisgnEJ3Sqodn6yVfs-158" target="uDoisgnEJ3Sqodn6yVfs-153" edge="1">
          <mxGeometry relative="1" as="geometry" />
        </mxCell>
        <mxCell id="uDoisgnEJ3Sqodn6yVfs-166" style="edgeStyle=orthogonalEdgeStyle;rounded=0;orthogonalLoop=1;jettySize=auto;html=1;startArrow=none;startFill=0;endArrow=classicThin;endFill=1;" parent="WIyWlLk6GJQsqaUBKTNV-1" source="uDoisgnEJ3Sqodn6yVfs-158" target="uDoisgnEJ3Sqodn6yVfs-164" edge="1">
          <mxGeometry relative="1" as="geometry" />
        </mxCell>
        <mxCell id="uDoisgnEJ3Sqodn6yVfs-158" value="Funn?" style="rhombus;whiteSpace=wrap;html=1;rounded=0;fontColor=#ffffff;strokeColor=#B09500;fillColor=#e3c800;" parent="WIyWlLk6GJQsqaUBKTNV-1" vertex="1">
          <mxGeometry x="2779" y="453" width="85.5" height="87" as="geometry" />
        </mxCell>
        <mxCell id="uDoisgnEJ3Sqodn6yVfs-164" value="Returner" style="ellipse;whiteSpace=wrap;html=1;fillColor=#6d8764;strokeColor=#3A5431;fontColor=#ffffff;" parent="WIyWlLk6GJQsqaUBKTNV-1" vertex="1">
          <mxGeometry x="2741.25" y="571" width="161" height="49" as="geometry" />
        </mxCell>
        <mxCell id="uDoisgnEJ3Sqodn6yVfs-167" value="Nei" style="text;html=1;align=center;verticalAlign=middle;resizable=0;points=[];autosize=1;" parent="WIyWlLk6GJQsqaUBKTNV-1" vertex="1">
          <mxGeometry x="2867" y="479" width="28" height="18" as="geometry" />
        </mxCell>
        <mxCell id="uDoisgnEJ3Sqodn6yVfs-168" value="Nei" style="text;html=1;align=center;verticalAlign=middle;resizable=0;points=[];autosize=1;" parent="WIyWlLk6GJQsqaUBKTNV-1" vertex="1">
          <mxGeometry x="2867" y="371" width="28" height="18" as="geometry" />
        </mxCell>
        <mxCell id="uDoisgnEJ3Sqodn6yVfs-169" value="Nei" style="text;html=1;align=center;verticalAlign=middle;resizable=0;points=[];autosize=1;" parent="WIyWlLk6GJQsqaUBKTNV-1" vertex="1">
          <mxGeometry x="2867.69" y="259" width="28" height="18" as="geometry" />
        </mxCell>
        <mxCell id="uDoisgnEJ3Sqodn6yVfs-173" style="edgeStyle=orthogonalEdgeStyle;rounded=0;orthogonalLoop=1;jettySize=auto;html=1;startArrow=none;startFill=0;endArrow=classicThin;endFill=1;" parent="WIyWlLk6GJQsqaUBKTNV-1" source="uDoisgnEJ3Sqodn6yVfs-170" target="uDoisgnEJ3Sqodn6yVfs-172" edge="1">
          <mxGeometry relative="1" as="geometry" />
        </mxCell>
        <mxCell id="uDoisgnEJ3Sqodn6yVfs-170" value="Square.find_designated_&lt;br&gt;plantingarea()" style="ellipse;whiteSpace=wrap;html=1;fillColor=#6d8764;strokeColor=#3A5431;fontColor=#ffffff;" parent="WIyWlLk6GJQsqaUBKTNV-1" vertex="1">
          <mxGeometry x="2531" y="758" width="170" height="49" as="geometry" />
        </mxCell>
        <mxCell id="uDoisgnEJ3Sqodn6yVfs-176" value="" style="edgeStyle=orthogonalEdgeStyle;rounded=0;orthogonalLoop=1;jettySize=auto;html=1;startArrow=none;startFill=0;endArrow=classicThin;endFill=1;" parent="WIyWlLk6GJQsqaUBKTNV-1" source="uDoisgnEJ3Sqodn6yVfs-172" target="uDoisgnEJ3Sqodn6yVfs-175" edge="1">
          <mxGeometry relative="1" as="geometry" />
        </mxCell>
        <mxCell id="uDoisgnEJ3Sqodn6yVfs-172" value="Maskerer ut gul farge" style="rounded=0;whiteSpace=wrap;html=1;fillColor=#e3c800;strokeColor=#B09500;fontColor=#ffffff;" parent="WIyWlLk6GJQsqaUBKTNV-1" vertex="1">
          <mxGeometry x="2546.25" y="848" width="139.5" height="32" as="geometry" />
        </mxCell>
        <mxCell id="uDoisgnEJ3Sqodn6yVfs-180" style="edgeStyle=orthogonalEdgeStyle;rounded=0;orthogonalLoop=1;jettySize=auto;html=1;entryX=0.5;entryY=0;entryDx=0;entryDy=0;startArrow=none;startFill=0;endArrow=classicThin;endFill=1;" parent="WIyWlLk6GJQsqaUBKTNV-1" source="uDoisgnEJ3Sqodn6yVfs-175" target="uDoisgnEJ3Sqodn6yVfs-179" edge="1">
          <mxGeometry relative="1" as="geometry" />
        </mxCell>
        <mxCell id="uDoisgnEJ3Sqodn6yVfs-175" value="Finner konturer" style="rounded=0;whiteSpace=wrap;html=1;fillColor=#e3c800;strokeColor=#B09500;fontColor=#ffffff;" parent="WIyWlLk6GJQsqaUBKTNV-1" vertex="1">
          <mxGeometry x="2546.25" y="909" width="139.5" height="32" as="geometry" />
        </mxCell>
        <mxCell id="uDoisgnEJ3Sqodn6yVfs-181" style="edgeStyle=orthogonalEdgeStyle;rounded=0;orthogonalLoop=1;jettySize=auto;html=1;startArrow=none;startFill=0;endArrow=classicThin;endFill=1;entryX=0.5;entryY=0;entryDx=0;entryDy=0;" parent="WIyWlLk6GJQsqaUBKTNV-1" source="uDoisgnEJ3Sqodn6yVfs-179" target="uDoisgnEJ3Sqodn6yVfs-187" edge="1">
          <mxGeometry relative="1" as="geometry">
            <mxPoint x="2619" y="1336" as="targetPoint" />
            <Array as="points">
              <mxPoint x="2756" y="1018" />
              <mxPoint x="2756" y="1324" />
              <mxPoint x="2616" y="1324" />
            </Array>
          </mxGeometry>
        </mxCell>
        <mxCell id="uDoisgnEJ3Sqodn6yVfs-199" style="edgeStyle=orthogonalEdgeStyle;rounded=0;orthogonalLoop=1;jettySize=auto;html=1;startArrow=none;startFill=0;endArrow=classicThin;endFill=1;" parent="WIyWlLk6GJQsqaUBKTNV-1" source="uDoisgnEJ3Sqodn6yVfs-179" target="uDoisgnEJ3Sqodn6yVfs-197" edge="1">
          <mxGeometry relative="1" as="geometry" />
        </mxCell>
        <mxCell id="uDoisgnEJ3Sqodn6yVfs-179" value="Fant vi&lt;br&gt;&amp;nbsp;en/flere konturer?" style="rhombus;whiteSpace=wrap;html=1;rounded=0;fontColor=#ffffff;strokeColor=#B09500;fillColor=#e3c800;" parent="WIyWlLk6GJQsqaUBKTNV-1" vertex="1">
          <mxGeometry x="2570.63" y="974" width="90.75" height="87" as="geometry" />
        </mxCell>
        <mxCell id="uDoisgnEJ3Sqodn6yVfs-198" style="edgeStyle=orthogonalEdgeStyle;rounded=0;orthogonalLoop=1;jettySize=auto;html=1;startArrow=none;startFill=0;endArrow=classicThin;endFill=1;exitX=1;exitY=0.5;exitDx=0;exitDy=0;entryX=0.5;entryY=0;entryDx=0;entryDy=0;" parent="WIyWlLk6GJQsqaUBKTNV-1" source="uDoisgnEJ3Sqodn6yVfs-183" target="uDoisgnEJ3Sqodn6yVfs-187" edge="1">
          <mxGeometry relative="1" as="geometry">
            <mxPoint x="2619" y="1344" as="targetPoint" />
            <Array as="points">
              <mxPoint x="2756" y="1191" />
              <mxPoint x="2756" y="1324" />
              <mxPoint x="2616" y="1324" />
            </Array>
          </mxGeometry>
        </mxCell>
        <mxCell id="uDoisgnEJ3Sqodn6yVfs-200" style="edgeStyle=orthogonalEdgeStyle;rounded=0;orthogonalLoop=1;jettySize=auto;html=1;entryX=0.5;entryY=0;entryDx=0;entryDy=0;startArrow=none;startFill=0;endArrow=classicThin;endFill=1;" parent="WIyWlLk6GJQsqaUBKTNV-1" source="uDoisgnEJ3Sqodn6yVfs-183" target="uDoisgnEJ3Sqodn6yVfs-185" edge="1">
          <mxGeometry relative="1" as="geometry" />
        </mxCell>
        <mxCell id="uDoisgnEJ3Sqodn6yVfs-183" value="Er &lt;br&gt;soliditeten over &lt;br&gt;terskel?" style="rhombus;whiteSpace=wrap;html=1;rounded=0;fontColor=#ffffff;strokeColor=#B09500;fillColor=#e3c800;" parent="WIyWlLk6GJQsqaUBKTNV-1" vertex="1">
          <mxGeometry x="2567.63" y="1146" width="96.75" height="87" as="geometry" />
        </mxCell>
        <mxCell id="uDoisgnEJ3Sqodn6yVfs-203" style="edgeStyle=orthogonalEdgeStyle;rounded=0;orthogonalLoop=1;jettySize=auto;html=1;startArrow=none;startFill=0;endArrow=classicThin;endFill=1;" parent="WIyWlLk6GJQsqaUBKTNV-1" source="uDoisgnEJ3Sqodn6yVfs-185" target="uDoisgnEJ3Sqodn6yVfs-187" edge="1">
          <mxGeometry relative="1" as="geometry" />
        </mxCell>
        <mxCell id="uDoisgnEJ3Sqodn6yVfs-185" value="funn = Planteplass" style="rounded=0;whiteSpace=wrap;html=1;fillColor=#e3c800;strokeColor=#B09500;fontColor=#ffffff;" parent="WIyWlLk6GJQsqaUBKTNV-1" vertex="1">
          <mxGeometry x="2546.25" y="1266" width="139.5" height="32" as="geometry" />
        </mxCell>
        <mxCell id="uDoisgnEJ3Sqodn6yVfs-187" value="Returner" style="ellipse;whiteSpace=wrap;html=1;fillColor=#6d8764;strokeColor=#3A5431;fontColor=#ffffff;" parent="WIyWlLk6GJQsqaUBKTNV-1" vertex="1">
          <mxGeometry x="2535.5" y="1345" width="161" height="49" as="geometry" />
        </mxCell>
        <mxCell id="uDoisgnEJ3Sqodn6yVfs-194" value="Nei" style="text;html=1;align=center;verticalAlign=middle;resizable=0;points=[];autosize=1;" parent="WIyWlLk6GJQsqaUBKTNV-1" vertex="1">
          <mxGeometry x="2658.75" y="1173" width="28" height="18" as="geometry" />
        </mxCell>
        <mxCell id="uDoisgnEJ3Sqodn6yVfs-195" value="Nei" style="text;html=1;align=center;verticalAlign=middle;resizable=0;points=[];autosize=1;" parent="WIyWlLk6GJQsqaUBKTNV-1" vertex="1">
          <mxGeometry x="2658.75" y="997" width="28" height="18" as="geometry" />
        </mxCell>
        <mxCell id="uDoisgnEJ3Sqodn6yVfs-196" value="Ja" style="text;html=1;align=center;verticalAlign=middle;resizable=0;points=[];autosize=1;" parent="WIyWlLk6GJQsqaUBKTNV-1" vertex="1">
          <mxGeometry x="2593" y="1056" width="23" height="18" as="geometry" />
        </mxCell>
        <mxCell id="uDoisgnEJ3Sqodn6yVfs-201" style="edgeStyle=orthogonalEdgeStyle;rounded=0;orthogonalLoop=1;jettySize=auto;html=1;startArrow=none;startFill=0;endArrow=classicThin;endFill=1;" parent="WIyWlLk6GJQsqaUBKTNV-1" source="uDoisgnEJ3Sqodn6yVfs-197" edge="1">
          <mxGeometry relative="1" as="geometry">
            <mxPoint x="2616" y="1146.6666666666665" as="targetPoint" />
          </mxGeometry>
        </mxCell>
        <mxCell id="uDoisgnEJ3Sqodn6yVfs-197" value="Finner soliditet til den største konturen" style="rounded=0;whiteSpace=wrap;html=1;fillColor=#e3c800;strokeColor=#B09500;fontColor=#ffffff;" parent="WIyWlLk6GJQsqaUBKTNV-1" vertex="1">
          <mxGeometry x="2546.25" y="1086.5" width="139.5" height="32" as="geometry" />
        </mxCell>
        <mxCell id="uDoisgnEJ3Sqodn6yVfs-202" value="Ja" style="text;html=1;align=center;verticalAlign=middle;resizable=0;points=[];autosize=1;" parent="WIyWlLk6GJQsqaUBKTNV-1" vertex="1">
          <mxGeometry x="2593" y="1230" width="23" height="18" as="geometry" />
        </mxCell>
        <mxCell id="uDoisgnEJ3Sqodn6yVfs-204" style="edgeStyle=orthogonalEdgeStyle;rounded=0;orthogonalLoop=1;jettySize=auto;html=1;startArrow=none;startFill=0;endArrow=classicThin;endFill=1;" parent="WIyWlLk6GJQsqaUBKTNV-1" source="uDoisgnEJ3Sqodn6yVfs-205" target="uDoisgnEJ3Sqodn6yVfs-207" edge="1">
          <mxGeometry relative="1" as="geometry" />
        </mxCell>
        <mxCell id="uDoisgnEJ3Sqodn6yVfs-205" value="Square.find_seastar()" style="ellipse;whiteSpace=wrap;html=1;fillColor=#6d8764;strokeColor=#3A5431;fontColor=#ffffff;" parent="WIyWlLk6GJQsqaUBKTNV-1" vertex="1">
          <mxGeometry x="2902.25" y="760" width="170" height="49" as="geometry" />
        </mxCell>
        <mxCell id="uDoisgnEJ3Sqodn6yVfs-206" value="" style="edgeStyle=orthogonalEdgeStyle;rounded=0;orthogonalLoop=1;jettySize=auto;html=1;startArrow=none;startFill=0;endArrow=classicThin;endFill=1;" parent="WIyWlLk6GJQsqaUBKTNV-1" source="uDoisgnEJ3Sqodn6yVfs-207" target="uDoisgnEJ3Sqodn6yVfs-209" edge="1">
          <mxGeometry relative="1" as="geometry" />
        </mxCell>
        <mxCell id="uDoisgnEJ3Sqodn6yVfs-207" value="Maskerer ut rødfarge" style="rounded=0;whiteSpace=wrap;html=1;fillColor=#e3c800;strokeColor=#B09500;fontColor=#ffffff;" parent="WIyWlLk6GJQsqaUBKTNV-1" vertex="1">
          <mxGeometry x="2917.5" y="850" width="139.5" height="32" as="geometry" />
        </mxCell>
        <mxCell id="uDoisgnEJ3Sqodn6yVfs-208" style="edgeStyle=orthogonalEdgeStyle;rounded=0;orthogonalLoop=1;jettySize=auto;html=1;entryX=0.5;entryY=0;entryDx=0;entryDy=0;startArrow=none;startFill=0;endArrow=classicThin;endFill=1;" parent="WIyWlLk6GJQsqaUBKTNV-1" source="uDoisgnEJ3Sqodn6yVfs-209" target="uDoisgnEJ3Sqodn6yVfs-212" edge="1">
          <mxGeometry relative="1" as="geometry" />
        </mxCell>
        <mxCell id="uDoisgnEJ3Sqodn6yVfs-209" value="Finner og sortere konturene etter areal" style="rounded=0;whiteSpace=wrap;html=1;fillColor=#e3c800;strokeColor=#B09500;fontColor=#ffffff;" parent="WIyWlLk6GJQsqaUBKTNV-1" vertex="1">
          <mxGeometry x="2917.5" y="911" width="139.5" height="32" as="geometry" />
        </mxCell>
        <mxCell id="uDoisgnEJ3Sqodn6yVfs-225" style="edgeStyle=orthogonalEdgeStyle;rounded=0;orthogonalLoop=1;jettySize=auto;html=1;entryX=0.5;entryY=0;entryDx=0;entryDy=0;startArrow=none;startFill=0;endArrow=classicThin;endFill=1;" parent="WIyWlLk6GJQsqaUBKTNV-1" source="uDoisgnEJ3Sqodn6yVfs-212" target="uDoisgnEJ3Sqodn6yVfs-223" edge="1">
          <mxGeometry relative="1" as="geometry" />
        </mxCell>
        <mxCell id="uDoisgnEJ3Sqodn6yVfs-246" style="edgeStyle=orthogonalEdgeStyle;rounded=0;orthogonalLoop=1;jettySize=auto;html=1;entryX=0.5;entryY=0;entryDx=0;entryDy=0;startArrow=none;startFill=0;endArrow=classicThin;endFill=1;" parent="WIyWlLk6GJQsqaUBKTNV-1" source="uDoisgnEJ3Sqodn6yVfs-212" target="uDoisgnEJ3Sqodn6yVfs-218" edge="1">
          <mxGeometry relative="1" as="geometry" />
        </mxCell>
        <mxCell id="uDoisgnEJ3Sqodn6yVfs-247" style="edgeStyle=orthogonalEdgeStyle;rounded=0;orthogonalLoop=1;jettySize=auto;html=1;startArrow=none;startFill=0;endArrow=classicThin;endFill=1;" parent="WIyWlLk6GJQsqaUBKTNV-1" source="uDoisgnEJ3Sqodn6yVfs-212" target="uDoisgnEJ3Sqodn6yVfs-218" edge="1">
          <mxGeometry relative="1" as="geometry">
            <Array as="points">
              <mxPoint x="3144" y="1029" />
              <mxPoint x="3144" y="1388" />
              <mxPoint x="2988" y="1388" />
            </Array>
          </mxGeometry>
        </mxCell>
        <mxCell id="uDoisgnEJ3Sqodn6yVfs-212" value="Fant vi konturer &lt;br&gt;og arealet til den&lt;br&gt;&amp;nbsp;største konturen&lt;br&gt;er mer enn 0?" style="rhombus;whiteSpace=wrap;html=1;rounded=0;fontColor=#ffffff;strokeColor=#B09500;fillColor=#e3c800;" parent="WIyWlLk6GJQsqaUBKTNV-1" vertex="1">
          <mxGeometry x="2916.5" y="970.5" width="142" height="116" as="geometry" />
        </mxCell>
        <mxCell id="uDoisgnEJ3Sqodn6yVfs-216" style="edgeStyle=orthogonalEdgeStyle;rounded=0;orthogonalLoop=1;jettySize=auto;html=1;startArrow=none;startFill=0;endArrow=classicThin;endFill=1;" parent="WIyWlLk6GJQsqaUBKTNV-1" source="uDoisgnEJ3Sqodn6yVfs-217" target="uDoisgnEJ3Sqodn6yVfs-218" edge="1">
          <mxGeometry relative="1" as="geometry" />
        </mxCell>
        <mxCell id="uDoisgnEJ3Sqodn6yVfs-217" value="funn = Stjerne" style="rounded=0;whiteSpace=wrap;html=1;fillColor=#e3c800;strokeColor=#B09500;fontColor=#ffffff;" parent="WIyWlLk6GJQsqaUBKTNV-1" vertex="1">
          <mxGeometry x="2917.75" y="1335" width="139.5" height="32" as="geometry" />
        </mxCell>
        <mxCell id="uDoisgnEJ3Sqodn6yVfs-218" value="Returner" style="ellipse;whiteSpace=wrap;html=1;fillColor=#6d8764;strokeColor=#3A5431;fontColor=#ffffff;" parent="WIyWlLk6GJQsqaUBKTNV-1" vertex="1">
          <mxGeometry x="2907" y="1414" width="161" height="49" as="geometry" />
        </mxCell>
        <mxCell id="uDoisgnEJ3Sqodn6yVfs-219" value="Nei" style="text;html=1;align=center;verticalAlign=middle;resizable=0;points=[];autosize=1;" parent="WIyWlLk6GJQsqaUBKTNV-1" vertex="1">
          <mxGeometry x="3061" y="1219" width="28" height="18" as="geometry" />
        </mxCell>
        <mxCell id="uDoisgnEJ3Sqodn6yVfs-220" value="Nei" style="text;html=1;align=center;verticalAlign=middle;resizable=0;points=[];autosize=1;" parent="WIyWlLk6GJQsqaUBKTNV-1" vertex="1">
          <mxGeometry x="3058.5" y="1008.5" width="28" height="18" as="geometry" />
        </mxCell>
        <mxCell id="uDoisgnEJ3Sqodn6yVfs-221" value="Ja" style="text;html=1;align=center;verticalAlign=middle;resizable=0;points=[];autosize=1;" parent="WIyWlLk6GJQsqaUBKTNV-1" vertex="1">
          <mxGeometry x="2964.5" y="1084" width="23" height="18" as="geometry" />
        </mxCell>
        <mxCell id="uDoisgnEJ3Sqodn6yVfs-228" style="edgeStyle=orthogonalEdgeStyle;rounded=0;orthogonalLoop=1;jettySize=auto;html=1;startArrow=none;startFill=0;endArrow=classicThin;endFill=1;" parent="WIyWlLk6GJQsqaUBKTNV-1" source="uDoisgnEJ3Sqodn6yVfs-223" target="uDoisgnEJ3Sqodn6yVfs-227" edge="1">
          <mxGeometry relative="1" as="geometry" />
        </mxCell>
        <mxCell id="uDoisgnEJ3Sqodn6yVfs-223" value="Finner soliditet til den største konturen" style="rounded=0;whiteSpace=wrap;html=1;fillColor=#e3c800;strokeColor=#B09500;fontColor=#ffffff;" parent="WIyWlLk6GJQsqaUBKTNV-1" vertex="1">
          <mxGeometry x="2917.75" y="1118.5" width="139.5" height="32" as="geometry" />
        </mxCell>
        <mxCell id="uDoisgnEJ3Sqodn6yVfs-224" value="Ja" style="text;html=1;align=center;verticalAlign=middle;resizable=0;points=[];autosize=1;" parent="WIyWlLk6GJQsqaUBKTNV-1" vertex="1">
          <mxGeometry x="2959" y="1297" width="23" height="18" as="geometry" />
        </mxCell>
        <mxCell id="uDoisgnEJ3Sqodn6yVfs-229" style="edgeStyle=orthogonalEdgeStyle;rounded=0;orthogonalLoop=1;jettySize=auto;html=1;entryX=0.5;entryY=0;entryDx=0;entryDy=0;startArrow=none;startFill=0;endArrow=classicThin;endFill=1;" parent="WIyWlLk6GJQsqaUBKTNV-1" source="uDoisgnEJ3Sqodn6yVfs-227" target="uDoisgnEJ3Sqodn6yVfs-217" edge="1">
          <mxGeometry relative="1" as="geometry" />
        </mxCell>
        <mxCell id="uDoisgnEJ3Sqodn6yVfs-248" style="edgeStyle=orthogonalEdgeStyle;rounded=0;orthogonalLoop=1;jettySize=auto;html=1;entryX=0.5;entryY=0;entryDx=0;entryDy=0;startArrow=none;startFill=0;endArrow=classicThin;endFill=1;" parent="WIyWlLk6GJQsqaUBKTNV-1" source="uDoisgnEJ3Sqodn6yVfs-227" target="uDoisgnEJ3Sqodn6yVfs-218" edge="1">
          <mxGeometry relative="1" as="geometry">
            <Array as="points">
              <mxPoint x="3144" y="1239" />
              <mxPoint x="3144" y="1388" />
              <mxPoint x="2988" y="1388" />
            </Array>
          </mxGeometry>
        </mxCell>
        <mxCell id="uDoisgnEJ3Sqodn6yVfs-227" value="Er soliditet&lt;br&gt;mellom&lt;br&gt;terskelverdiene?" style="rhombus;whiteSpace=wrap;html=1;rounded=0;fontColor=#ffffff;strokeColor=#B09500;fillColor=#e3c800;" parent="WIyWlLk6GJQsqaUBKTNV-1" vertex="1">
          <mxGeometry x="2916.5" y="1181" width="142" height="116" as="geometry" />
        </mxCell>
        <mxCell id="uDoisgnEJ3Sqodn6yVfs-231" value="Nei" style="text;html=1;align=center;verticalAlign=middle;resizable=0;points=[];autosize=1;" parent="WIyWlLk6GJQsqaUBKTNV-1" vertex="1">
          <mxGeometry x="3457" y="700" width="28" height="18" as="geometry" />
        </mxCell>
        <mxCell id="uDoisgnEJ3Sqodn6yVfs-232" value="Nei" style="text;html=1;align=center;verticalAlign=middle;resizable=0;points=[];autosize=1;" parent="WIyWlLk6GJQsqaUBKTNV-1" vertex="1">
          <mxGeometry x="3457" y="586.5" width="28" height="18" as="geometry" />
        </mxCell>
        <mxCell id="uDoisgnEJ3Sqodn6yVfs-233" value="Nei" style="text;html=1;align=center;verticalAlign=middle;resizable=0;points=[];autosize=1;" parent="WIyWlLk6GJQsqaUBKTNV-1" vertex="1">
          <mxGeometry x="3457" y="485" width="28" height="18" as="geometry" />
        </mxCell>
        <mxCell id="uDoisgnEJ3Sqodn6yVfs-234" value="Nei" style="text;html=1;align=center;verticalAlign=middle;resizable=0;points=[];autosize=1;" parent="WIyWlLk6GJQsqaUBKTNV-1" vertex="1">
          <mxGeometry x="3457" y="374" width="28" height="18" as="geometry" />
        </mxCell>
        <mxCell id="uDoisgnEJ3Sqodn6yVfs-235" value="Ja" style="text;html=1;align=center;verticalAlign=middle;resizable=0;points=[];autosize=1;" parent="WIyWlLk6GJQsqaUBKTNV-1" vertex="1">
          <mxGeometry x="3529" y="530.5" width="23" height="18" as="geometry" />
        </mxCell>
        <mxCell id="uDoisgnEJ3Sqodn6yVfs-236" value="Ja" style="text;html=1;align=center;verticalAlign=middle;resizable=0;points=[];autosize=1;" parent="WIyWlLk6GJQsqaUBKTNV-1" vertex="1">
          <mxGeometry x="3531.25" y="315" width="23" height="18" as="geometry" />
        </mxCell>
        <mxCell id="uDoisgnEJ3Sqodn6yVfs-239" value="Ja" style="text;html=1;align=center;verticalAlign=middle;resizable=0;points=[];autosize=1;" parent="WIyWlLk6GJQsqaUBKTNV-1" vertex="1">
          <mxGeometry x="3529" y="427.5" width="23" height="18" as="geometry" />
        </mxCell>
        <mxCell id="uDoisgnEJ3Sqodn6yVfs-240" value="Ja" style="text;html=1;align=center;verticalAlign=middle;resizable=0;points=[];autosize=1;" parent="WIyWlLk6GJQsqaUBKTNV-1" vertex="1">
          <mxGeometry x="3531.25" y="642.5" width="23" height="18" as="geometry" />
        </mxCell>
        <mxCell id="uDoisgnEJ3Sqodn6yVfs-241" value="Ferdig med løkke" style="text;html=1;align=center;verticalAlign=middle;resizable=0;points=[];autosize=1;" parent="WIyWlLk6GJQsqaUBKTNV-1" vertex="1">
          <mxGeometry x="3534" y="198" width="103" height="18" as="geometry" />
        </mxCell>
        <mxCell id="uDoisgnEJ3Sqodn6yVfs-249" style="edgeStyle=orthogonalEdgeStyle;rounded=0;orthogonalLoop=1;jettySize=auto;html=1;startArrow=none;startFill=0;endArrow=classicThin;endFill=1;" parent="WIyWlLk6GJQsqaUBKTNV-1" source="uDoisgnEJ3Sqodn6yVfs-250" target="uDoisgnEJ3Sqodn6yVfs-252" edge="1">
          <mxGeometry relative="1" as="geometry" />
        </mxCell>
        <mxCell id="uDoisgnEJ3Sqodn6yVfs-250" value="Square.find_sponge()" style="ellipse;whiteSpace=wrap;html=1;fillColor=#6d8764;strokeColor=#3A5431;fontColor=#ffffff;" parent="WIyWlLk6GJQsqaUBKTNV-1" vertex="1">
          <mxGeometry x="2577" y="1621" width="170" height="49" as="geometry" />
        </mxCell>
        <mxCell id="uDoisgnEJ3Sqodn6yVfs-251" value="" style="edgeStyle=orthogonalEdgeStyle;rounded=0;orthogonalLoop=1;jettySize=auto;html=1;startArrow=none;startFill=0;endArrow=classicThin;endFill=1;" parent="WIyWlLk6GJQsqaUBKTNV-1" source="uDoisgnEJ3Sqodn6yVfs-252" target="uDoisgnEJ3Sqodn6yVfs-254" edge="1">
          <mxGeometry relative="1" as="geometry" />
        </mxCell>
        <mxCell id="uDoisgnEJ3Sqodn6yVfs-252" value="Maskerer ut bakgrunn" style="rounded=0;whiteSpace=wrap;html=1;fillColor=#e3c800;strokeColor=#B09500;fontColor=#ffffff;" parent="WIyWlLk6GJQsqaUBKTNV-1" vertex="1">
          <mxGeometry x="2592.25" y="1711" width="139.5" height="32" as="geometry" />
        </mxCell>
        <mxCell id="uDoisgnEJ3Sqodn6yVfs-286" style="edgeStyle=orthogonalEdgeStyle;rounded=0;orthogonalLoop=1;jettySize=auto;html=1;entryX=0.5;entryY=0;entryDx=0;entryDy=0;startArrow=none;startFill=0;endArrow=classicThin;endFill=1;" parent="WIyWlLk6GJQsqaUBKTNV-1" source="uDoisgnEJ3Sqodn6yVfs-254" target="uDoisgnEJ3Sqodn6yVfs-273" edge="1">
          <mxGeometry relative="1" as="geometry" />
        </mxCell>
        <mxCell id="uDoisgnEJ3Sqodn6yVfs-254" value="Leter etter sirkler med HoughCircles()" style="rounded=0;whiteSpace=wrap;html=1;fillColor=#e3c800;strokeColor=#B09500;fontColor=#ffffff;" parent="WIyWlLk6GJQsqaUBKTNV-1" vertex="1">
          <mxGeometry x="2592.25" y="1772" width="139.5" height="32" as="geometry" />
        </mxCell>
        <mxCell id="uDoisgnEJ3Sqodn6yVfs-271" style="edgeStyle=orthogonalEdgeStyle;rounded=0;orthogonalLoop=1;jettySize=auto;html=1;startArrow=none;startFill=0;endArrow=classicThin;endFill=1;entryX=0.5;entryY=0;entryDx=0;entryDy=0;exitX=0.028;exitY=1.183;exitDx=0;exitDy=0;exitPerimeter=0;" parent="WIyWlLk6GJQsqaUBKTNV-1" source="uDoisgnEJ3Sqodn6yVfs-281" target="uDoisgnEJ3Sqodn6yVfs-279" edge="1">
          <mxGeometry relative="1" as="geometry">
            <mxPoint x="2666" y="2069.48" as="targetPoint" />
            <Array as="points">
              <mxPoint x="2803" y="1874" />
              <mxPoint x="2803" y="2049" />
              <mxPoint x="2663" y="2049" />
            </Array>
            <mxPoint x="2706" y="1880" as="sourcePoint" />
          </mxGeometry>
        </mxCell>
        <mxCell id="uDoisgnEJ3Sqodn6yVfs-272" style="edgeStyle=orthogonalEdgeStyle;rounded=0;orthogonalLoop=1;jettySize=auto;html=1;startArrow=none;startFill=0;endArrow=classicThin;endFill=1;" parent="WIyWlLk6GJQsqaUBKTNV-1" source="uDoisgnEJ3Sqodn6yVfs-273" target="uDoisgnEJ3Sqodn6yVfs-284" edge="1">
          <mxGeometry relative="1" as="geometry" />
        </mxCell>
        <mxCell id="uDoisgnEJ3Sqodn6yVfs-273" value="Funn av &lt;br&gt;sirkel?" style="rhombus;whiteSpace=wrap;html=1;rounded=0;fontColor=#ffffff;strokeColor=#B09500;fillColor=#e3c800;" parent="WIyWlLk6GJQsqaUBKTNV-1" vertex="1">
          <mxGeometry x="2619.75" y="1830" width="85.5" height="87" as="geometry" />
        </mxCell>
        <mxCell id="uDoisgnEJ3Sqodn6yVfs-277" style="edgeStyle=orthogonalEdgeStyle;rounded=0;orthogonalLoop=1;jettySize=auto;html=1;startArrow=none;startFill=0;endArrow=classicThin;endFill=1;" parent="WIyWlLk6GJQsqaUBKTNV-1" source="uDoisgnEJ3Sqodn6yVfs-278" target="uDoisgnEJ3Sqodn6yVfs-279" edge="1">
          <mxGeometry relative="1" as="geometry" />
        </mxCell>
        <mxCell id="uDoisgnEJ3Sqodn6yVfs-278" value="funn = Svamp" style="rounded=0;whiteSpace=wrap;html=1;fillColor=#e3c800;strokeColor=#B09500;fontColor=#ffffff;" parent="WIyWlLk6GJQsqaUBKTNV-1" vertex="1">
          <mxGeometry x="2592.75" y="1999.48" width="139.5" height="32" as="geometry" />
        </mxCell>
        <mxCell id="uDoisgnEJ3Sqodn6yVfs-279" value="Returner" style="ellipse;whiteSpace=wrap;html=1;fillColor=#6d8764;strokeColor=#3A5431;fontColor=#ffffff;" parent="WIyWlLk6GJQsqaUBKTNV-1" vertex="1">
          <mxGeometry x="2582" y="2078.48" width="161" height="49" as="geometry" />
        </mxCell>
        <mxCell id="uDoisgnEJ3Sqodn6yVfs-281" value="Nei" style="text;html=1;align=center;verticalAlign=middle;resizable=0;points=[];autosize=1;" parent="WIyWlLk6GJQsqaUBKTNV-1" vertex="1">
          <mxGeometry x="2705.25" y="1853" width="28" height="18" as="geometry" />
        </mxCell>
        <mxCell id="uDoisgnEJ3Sqodn6yVfs-282" value="Ja" style="text;html=1;align=center;verticalAlign=middle;resizable=0;points=[];autosize=1;" parent="WIyWlLk6GJQsqaUBKTNV-1" vertex="1">
          <mxGeometry x="2639.5" y="1912" width="23" height="18" as="geometry" />
        </mxCell>
        <mxCell id="uDoisgnEJ3Sqodn6yVfs-287" style="edgeStyle=orthogonalEdgeStyle;rounded=0;orthogonalLoop=1;jettySize=auto;html=1;startArrow=none;startFill=0;endArrow=classicThin;endFill=1;" parent="WIyWlLk6GJQsqaUBKTNV-1" source="uDoisgnEJ3Sqodn6yVfs-284" target="uDoisgnEJ3Sqodn6yVfs-278" edge="1">
          <mxGeometry relative="1" as="geometry" />
        </mxCell>
        <mxCell id="uDoisgnEJ3Sqodn6yVfs-284" value="Finner soliditet til den største konturen" style="rounded=0;whiteSpace=wrap;html=1;fillColor=#e3c800;strokeColor=#B09500;fontColor=#ffffff;" parent="WIyWlLk6GJQsqaUBKTNV-1" vertex="1">
          <mxGeometry x="2592.75" y="1942.5" width="139.5" height="32" as="geometry" />
        </mxCell>
        <mxCell id="uDoisgnEJ3Sqodn6yVfs-288" style="edgeStyle=orthogonalEdgeStyle;rounded=0;orthogonalLoop=1;jettySize=auto;html=1;startArrow=none;startFill=0;endArrow=classicThin;endFill=1;" parent="WIyWlLk6GJQsqaUBKTNV-1" source="uDoisgnEJ3Sqodn6yVfs-289" target="uDoisgnEJ3Sqodn6yVfs-291" edge="1">
          <mxGeometry relative="1" as="geometry" />
        </mxCell>
        <mxCell id="uDoisgnEJ3Sqodn6yVfs-289" value="Square.find_coral_reef()" style="ellipse;whiteSpace=wrap;html=1;fillColor=#6d8764;strokeColor=#3A5431;fontColor=#ffffff;" parent="WIyWlLk6GJQsqaUBKTNV-1" vertex="1">
          <mxGeometry x="2968" y="1730" width="170" height="49" as="geometry" />
        </mxCell>
        <mxCell id="uDoisgnEJ3Sqodn6yVfs-290" value="" style="edgeStyle=orthogonalEdgeStyle;rounded=0;orthogonalLoop=1;jettySize=auto;html=1;startArrow=none;startFill=0;endArrow=classicThin;endFill=1;" parent="WIyWlLk6GJQsqaUBKTNV-1" source="uDoisgnEJ3Sqodn6yVfs-291" target="uDoisgnEJ3Sqodn6yVfs-293" edge="1">
          <mxGeometry relative="1" as="geometry" />
        </mxCell>
        <mxCell id="uDoisgnEJ3Sqodn6yVfs-291" value="Maskerer ut sort" style="rounded=0;whiteSpace=wrap;html=1;fillColor=#e3c800;strokeColor=#B09500;fontColor=#ffffff;" parent="WIyWlLk6GJQsqaUBKTNV-1" vertex="1">
          <mxGeometry x="2983.25" y="1820" width="139.5" height="32" as="geometry" />
        </mxCell>
        <mxCell id="uDoisgnEJ3Sqodn6yVfs-292" style="edgeStyle=orthogonalEdgeStyle;rounded=0;orthogonalLoop=1;jettySize=auto;html=1;entryX=0.5;entryY=0;entryDx=0;entryDy=0;startArrow=none;startFill=0;endArrow=classicThin;endFill=1;" parent="WIyWlLk6GJQsqaUBKTNV-1" source="uDoisgnEJ3Sqodn6yVfs-293" target="uDoisgnEJ3Sqodn6yVfs-297" edge="1">
          <mxGeometry relative="1" as="geometry" />
        </mxCell>
        <mxCell id="uDoisgnEJ3Sqodn6yVfs-293" value="Finner og sortere konturene etter areal" style="rounded=0;whiteSpace=wrap;html=1;fillColor=#e3c800;strokeColor=#B09500;fontColor=#ffffff;" parent="WIyWlLk6GJQsqaUBKTNV-1" vertex="1">
          <mxGeometry x="2983.25" y="1881" width="139.5" height="32" as="geometry" />
        </mxCell>
        <mxCell id="uDoisgnEJ3Sqodn6yVfs-294" style="edgeStyle=orthogonalEdgeStyle;rounded=0;orthogonalLoop=1;jettySize=auto;html=1;entryX=0.5;entryY=0;entryDx=0;entryDy=0;startArrow=none;startFill=0;endArrow=classicThin;endFill=1;" parent="WIyWlLk6GJQsqaUBKTNV-1" source="uDoisgnEJ3Sqodn6yVfs-297" target="uDoisgnEJ3Sqodn6yVfs-305" edge="1">
          <mxGeometry relative="1" as="geometry" />
        </mxCell>
        <mxCell id="uDoisgnEJ3Sqodn6yVfs-295" style="edgeStyle=orthogonalEdgeStyle;rounded=0;orthogonalLoop=1;jettySize=auto;html=1;entryX=0.5;entryY=0;entryDx=0;entryDy=0;startArrow=none;startFill=0;endArrow=classicThin;endFill=1;" parent="WIyWlLk6GJQsqaUBKTNV-1" source="uDoisgnEJ3Sqodn6yVfs-297" target="uDoisgnEJ3Sqodn6yVfs-300" edge="1">
          <mxGeometry relative="1" as="geometry" />
        </mxCell>
        <mxCell id="uDoisgnEJ3Sqodn6yVfs-296" style="edgeStyle=orthogonalEdgeStyle;rounded=0;orthogonalLoop=1;jettySize=auto;html=1;startArrow=none;startFill=0;endArrow=classicThin;endFill=1;entryX=0.5;entryY=0;entryDx=0;entryDy=0;" parent="WIyWlLk6GJQsqaUBKTNV-1" source="uDoisgnEJ3Sqodn6yVfs-297" target="uDoisgnEJ3Sqodn6yVfs-300" edge="1">
          <mxGeometry relative="1" as="geometry">
            <Array as="points">
              <mxPoint x="3210" y="1999" />
              <mxPoint x="3210" y="2359" />
              <mxPoint x="3053" y="2359" />
            </Array>
          </mxGeometry>
        </mxCell>
        <mxCell id="uDoisgnEJ3Sqodn6yVfs-297" value="Fant vi noen konturer?" style="rhombus;whiteSpace=wrap;html=1;rounded=0;fontColor=#ffffff;strokeColor=#B09500;fillColor=#e3c800;" parent="WIyWlLk6GJQsqaUBKTNV-1" vertex="1">
          <mxGeometry x="2982.25" y="1940.5" width="142" height="116" as="geometry" />
        </mxCell>
        <mxCell id="uDoisgnEJ3Sqodn6yVfs-298" style="edgeStyle=orthogonalEdgeStyle;rounded=0;orthogonalLoop=1;jettySize=auto;html=1;startArrow=none;startFill=0;endArrow=classicThin;endFill=1;" parent="WIyWlLk6GJQsqaUBKTNV-1" source="uDoisgnEJ3Sqodn6yVfs-299" target="uDoisgnEJ3Sqodn6yVfs-300" edge="1">
          <mxGeometry relative="1" as="geometry" />
        </mxCell>
        <mxCell id="uDoisgnEJ3Sqodn6yVfs-299" value="funn = Koralrev" style="rounded=0;whiteSpace=wrap;html=1;fillColor=#e3c800;strokeColor=#B09500;fontColor=#ffffff;" parent="WIyWlLk6GJQsqaUBKTNV-1" vertex="1">
          <mxGeometry x="2983.5" y="2305" width="139.5" height="32" as="geometry" />
        </mxCell>
        <mxCell id="uDoisgnEJ3Sqodn6yVfs-300" value="Returner" style="ellipse;whiteSpace=wrap;html=1;fillColor=#6d8764;strokeColor=#3A5431;fontColor=#ffffff;" parent="WIyWlLk6GJQsqaUBKTNV-1" vertex="1">
          <mxGeometry x="2972.75" y="2384" width="161" height="49" as="geometry" />
        </mxCell>
        <mxCell id="uDoisgnEJ3Sqodn6yVfs-301" value="Nei" style="text;html=1;align=center;verticalAlign=middle;resizable=0;points=[];autosize=1;" parent="WIyWlLk6GJQsqaUBKTNV-1" vertex="1">
          <mxGeometry x="3126.75" y="2189" width="28" height="18" as="geometry" />
        </mxCell>
        <mxCell id="uDoisgnEJ3Sqodn6yVfs-302" value="Nei" style="text;html=1;align=center;verticalAlign=middle;resizable=0;points=[];autosize=1;" parent="WIyWlLk6GJQsqaUBKTNV-1" vertex="1">
          <mxGeometry x="3124.25" y="1978.5" width="28" height="18" as="geometry" />
        </mxCell>
        <mxCell id="uDoisgnEJ3Sqodn6yVfs-303" value="Ja" style="text;html=1;align=center;verticalAlign=middle;resizable=0;points=[];autosize=1;" parent="WIyWlLk6GJQsqaUBKTNV-1" vertex="1">
          <mxGeometry x="3030.25" y="2054" width="23" height="18" as="geometry" />
        </mxCell>
        <mxCell id="uDoisgnEJ3Sqodn6yVfs-304" style="edgeStyle=orthogonalEdgeStyle;rounded=0;orthogonalLoop=1;jettySize=auto;html=1;startArrow=none;startFill=0;endArrow=classicThin;endFill=1;" parent="WIyWlLk6GJQsqaUBKTNV-1" source="uDoisgnEJ3Sqodn6yVfs-305" target="uDoisgnEJ3Sqodn6yVfs-309" edge="1">
          <mxGeometry relative="1" as="geometry" />
        </mxCell>
        <mxCell id="uDoisgnEJ3Sqodn6yVfs-305" value="Finner største kontur sitt omkransende rektangel" style="rounded=0;whiteSpace=wrap;html=1;fillColor=#e3c800;strokeColor=#B09500;fontColor=#ffffff;" parent="WIyWlLk6GJQsqaUBKTNV-1" vertex="1">
          <mxGeometry x="2983.5" y="2088.5" width="139.5" height="32" as="geometry" />
        </mxCell>
        <mxCell id="uDoisgnEJ3Sqodn6yVfs-306" value="Ja" style="text;html=1;align=center;verticalAlign=middle;resizable=0;points=[];autosize=1;" parent="WIyWlLk6GJQsqaUBKTNV-1" vertex="1">
          <mxGeometry x="3024.75" y="2267" width="23" height="18" as="geometry" />
        </mxCell>
        <mxCell id="uDoisgnEJ3Sqodn6yVfs-307" style="edgeStyle=orthogonalEdgeStyle;rounded=0;orthogonalLoop=1;jettySize=auto;html=1;entryX=0.5;entryY=0;entryDx=0;entryDy=0;startArrow=none;startFill=0;endArrow=classicThin;endFill=1;" parent="WIyWlLk6GJQsqaUBKTNV-1" source="uDoisgnEJ3Sqodn6yVfs-309" target="uDoisgnEJ3Sqodn6yVfs-299" edge="1">
          <mxGeometry relative="1" as="geometry" />
        </mxCell>
        <mxCell id="uDoisgnEJ3Sqodn6yVfs-308" style="edgeStyle=orthogonalEdgeStyle;rounded=0;orthogonalLoop=1;jettySize=auto;html=1;entryX=0.5;entryY=0;entryDx=0;entryDy=0;startArrow=none;startFill=0;endArrow=classicThin;endFill=1;" parent="WIyWlLk6GJQsqaUBKTNV-1" source="uDoisgnEJ3Sqodn6yVfs-309" target="uDoisgnEJ3Sqodn6yVfs-300" edge="1">
          <mxGeometry relative="1" as="geometry">
            <Array as="points">
              <mxPoint x="3210" y="2209" />
              <mxPoint x="3210" y="2359" />
              <mxPoint x="3053" y="2359" />
            </Array>
          </mxGeometry>
        </mxCell>
        <mxCell id="uDoisgnEJ3Sqodn6yVfs-309" value="Er bredden på&lt;br&gt;&amp;nbsp;største kontur innenfor terskelverdiene?" style="rhombus;whiteSpace=wrap;html=1;rounded=0;fontColor=#ffffff;strokeColor=#B09500;fillColor=#e3c800;" parent="WIyWlLk6GJQsqaUBKTNV-1" vertex="1">
          <mxGeometry x="2982.25" y="2151" width="142" height="116" as="geometry" />
        </mxCell>
        <mxCell id="K7vVqPGRjOa1dxgQFs9q-0" value="Ja" style="text;html=1;align=center;verticalAlign=middle;resizable=0;points=[];autosize=1;" parent="WIyWlLk6GJQsqaUBKTNV-1" vertex="1">
          <mxGeometry x="2825" y="323.5" width="23" height="18" as="geometry" />
        </mxCell>
        <mxCell id="K7vVqPGRjOa1dxgQFs9q-1" value="Ja" style="text;html=1;align=center;verticalAlign=middle;resizable=0;points=[];autosize=1;" parent="WIyWlLk6GJQsqaUBKTNV-1" vertex="1">
          <mxGeometry x="2827" y="534" width="23" height="18" as="geometry" />
        </mxCell>
        <mxCell id="K7vVqPGRjOa1dxgQFs9q-2" value="Ja" style="text;html=1;align=center;verticalAlign=middle;resizable=0;points=[];autosize=1;" parent="WIyWlLk6GJQsqaUBKTNV-1" vertex="1">
          <mxGeometry x="2834" y="435" width="23" height="18" as="geometry" />
        </mxCell>
        <mxCell id="K7vVqPGRjOa1dxgQFs9q-3" value="Lagrer og fremviser kart" style="shape=parallelogram;perimeter=parallelogramPerimeter;whiteSpace=wrap;html=1;fixedSize=1;rounded=0;fontColor=#ffffff;strokeColor=#B09500;fillColor=#e3c800;" parent="WIyWlLk6GJQsqaUBKTNV-1" vertex="1">
          <mxGeometry x="3774.25" y="413.5" width="175.5" height="60" as="geometry" />
        </mxCell>
        <mxCell id="K7vVqPGRjOa1dxgQFs9q-8" value="" style="endArrow=classicThin;html=1;endFill=1;" parent="WIyWlLk6GJQsqaUBKTNV-1" edge="1">
          <mxGeometry width="50" height="50" relative="1" as="geometry">
            <mxPoint x="2728" y="1190.43" as="sourcePoint" />
            <mxPoint x="2737" y="1190.43" as="targetPoint" />
          </mxGeometry>
        </mxCell>
        <mxCell id="K7vVqPGRjOa1dxgQFs9q-10" value="" style="endArrow=classicThin;html=1;endFill=1;" parent="WIyWlLk6GJQsqaUBKTNV-1" edge="1">
          <mxGeometry width="50" height="50" relative="1" as="geometry">
            <mxPoint x="2756" y="1163" as="sourcePoint" />
            <mxPoint x="2756" y="1173" as="targetPoint" />
          </mxGeometry>
        </mxCell>
        <mxCell id="K7vVqPGRjOa1dxgQFs9q-12" value="" style="endArrow=classicThin;html=1;endFill=1;" parent="WIyWlLk6GJQsqaUBKTNV-1" edge="1">
          <mxGeometry width="50" height="50" relative="1" as="geometry">
            <mxPoint x="2615.67" y="1301" as="sourcePoint" />
            <mxPoint x="2615.67" y="1311" as="targetPoint" />
          </mxGeometry>
        </mxCell>
        <mxCell id="K7vVqPGRjOa1dxgQFs9q-13" value="" style="endArrow=classicThin;html=1;endFill=1;" parent="WIyWlLk6GJQsqaUBKTNV-1" edge="1">
          <mxGeometry width="50" height="50" relative="1" as="geometry">
            <mxPoint x="2756" y="1211" as="sourcePoint" />
            <mxPoint x="2756" y="1221" as="targetPoint" />
          </mxGeometry>
        </mxCell>
        <mxCell id="K7vVqPGRjOa1dxgQFs9q-16" value="" style="endArrow=classicThin;html=1;endFill=1;" parent="WIyWlLk6GJQsqaUBKTNV-1" edge="1">
          <mxGeometry width="50" height="50" relative="1" as="geometry">
            <mxPoint x="2662.5" y="2031.4800000000002" as="sourcePoint" />
            <mxPoint x="2662.5" y="2041.4800000000002" as="targetPoint" />
          </mxGeometry>
        </mxCell>
        <mxCell id="K7vVqPGRjOa1dxgQFs9q-18" value="" style="endArrow=classicThin;html=1;endFill=1;" parent="WIyWlLk6GJQsqaUBKTNV-1" edge="1">
          <mxGeometry width="50" height="50" relative="1" as="geometry">
            <mxPoint x="3042.25" y="1388.0000000000002" as="sourcePoint" />
            <mxPoint x="3030.25" y="1388" as="targetPoint" />
          </mxGeometry>
        </mxCell>
        <mxCell id="K7vVqPGRjOa1dxgQFs9q-19" value="" style="endArrow=classicThin;html=1;endFill=1;" parent="WIyWlLk6GJQsqaUBKTNV-1" edge="1">
          <mxGeometry width="50" height="50" relative="1" as="geometry">
            <mxPoint x="3144" y="1204.0000000000002" as="sourcePoint" />
            <mxPoint x="3144" y="1214.0000000000002" as="targetPoint" />
          </mxGeometry>
        </mxCell>
        <mxCell id="K7vVqPGRjOa1dxgQFs9q-20" value="" style="endArrow=classicThin;html=1;endFill=1;" parent="WIyWlLk6GJQsqaUBKTNV-1" edge="1">
          <mxGeometry width="50" height="50" relative="1" as="geometry">
            <mxPoint x="2987.5" y="1371.0000000000002" as="sourcePoint" />
            <mxPoint x="2987.5" y="1381.0000000000002" as="targetPoint" />
          </mxGeometry>
        </mxCell>
        <mxCell id="K7vVqPGRjOa1dxgQFs9q-21" value="" style="endArrow=classicThin;html=1;endFill=1;" parent="WIyWlLk6GJQsqaUBKTNV-1" edge="1">
          <mxGeometry width="50" height="50" relative="1" as="geometry">
            <mxPoint x="3089" y="1238.66" as="sourcePoint" />
            <mxPoint x="3098" y="1238.66" as="targetPoint" />
          </mxGeometry>
        </mxCell>
        <mxCell id="K7vVqPGRjOa1dxgQFs9q-22" value="" style="endArrow=classicThin;html=1;endFill=1;" parent="WIyWlLk6GJQsqaUBKTNV-1" edge="1">
          <mxGeometry width="50" height="50" relative="1" as="geometry">
            <mxPoint x="2803" y="1948" as="sourcePoint" />
            <mxPoint x="2803" y="1958" as="targetPoint" />
          </mxGeometry>
        </mxCell>
        <mxCell id="K7vVqPGRjOa1dxgQFs9q-24" value="" style="endArrow=classicThin;html=1;endFill=1;" parent="WIyWlLk6GJQsqaUBKTNV-1" edge="1">
          <mxGeometry width="50" height="50" relative="1" as="geometry">
            <mxPoint x="3210" y="2103" as="sourcePoint" />
            <mxPoint x="3210" y="2120.5" as="targetPoint" />
          </mxGeometry>
        </mxCell>
        <mxCell id="K7vVqPGRjOa1dxgQFs9q-25" value="" style="endArrow=classicThin;html=1;endFill=1;" parent="WIyWlLk6GJQsqaUBKTNV-1" edge="1">
          <mxGeometry width="50" height="50" relative="1" as="geometry">
            <mxPoint x="3210" y="2285" as="sourcePoint" />
            <mxPoint x="3210" y="2295" as="targetPoint" />
          </mxGeometry>
        </mxCell>
        <mxCell id="K7vVqPGRjOa1dxgQFs9q-26" value="" style="endArrow=classicThin;html=1;endFill=1;" parent="WIyWlLk6GJQsqaUBKTNV-1" edge="1">
          <mxGeometry width="50" height="50" relative="1" as="geometry">
            <mxPoint x="3162" y="2208.66" as="sourcePoint" />
            <mxPoint x="3171" y="2208.66" as="targetPoint" />
          </mxGeometry>
        </mxCell>
        <mxCell id="K7vVqPGRjOa1dxgQFs9q-27" value="" style="endArrow=classicThin;html=1;endFill=1;" parent="WIyWlLk6GJQsqaUBKTNV-1" edge="1">
          <mxGeometry width="50" height="50" relative="1" as="geometry">
            <mxPoint x="3053.25" y="2338" as="sourcePoint" />
            <mxPoint x="3053.25" y="2348" as="targetPoint" />
          </mxGeometry>
        </mxCell>
        <mxCell id="1vm_EwPhKsrHVtNsUGHA-0" style="edgeStyle=orthogonalEdgeStyle;rounded=0;orthogonalLoop=1;jettySize=auto;html=1;entryX=0.5;entryY=0;entryDx=0;entryDy=0;" parent="WIyWlLk6GJQsqaUBKTNV-1" source="1vm_EwPhKsrHVtNsUGHA-1" target="1vm_EwPhKsrHVtNsUGHA-3" edge="1">
          <mxGeometry relative="1" as="geometry" />
        </mxCell>
        <mxCell id="1vm_EwPhKsrHVtNsUGHA-1" value="&lt;span style=&quot;color: rgb(255 , 255 , 255)&quot;&gt;Seabed.initial_image_&lt;br&gt;transformations()&lt;/span&gt;" style="ellipse;whiteSpace=wrap;html=1;fillColor=#6d8764;strokeColor=#3A5431;fontColor=#ffffff;" parent="WIyWlLk6GJQsqaUBKTNV-1" vertex="1">
          <mxGeometry x="1857.75" y="816" width="170" height="49" as="geometry" />
        </mxCell>
        <mxCell id="1vm_EwPhKsrHVtNsUGHA-21" style="edgeStyle=orthogonalEdgeStyle;rounded=0;orthogonalLoop=1;jettySize=auto;html=1;entryX=0.5;entryY=0;entryDx=0;entryDy=0;" parent="WIyWlLk6GJQsqaUBKTNV-1" source="1vm_EwPhKsrHVtNsUGHA-3" target="1vm_EwPhKsrHVtNsUGHA-6" edge="1">
          <mxGeometry relative="1" as="geometry" />
        </mxCell>
        <mxCell id="1vm_EwPhKsrHVtNsUGHA-3" value="Skallerer bilde til standard størrelse." style="rounded=0;whiteSpace=wrap;html=1;fillColor=#e3c800;strokeColor=#B09500;fontColor=#ffffff;" parent="WIyWlLk6GJQsqaUBKTNV-1" vertex="1">
          <mxGeometry x="1872.75" y="891" width="139.5" height="32" as="geometry" />
        </mxCell>
        <mxCell id="1vm_EwPhKsrHVtNsUGHA-5" value="" style="edgeStyle=orthogonalEdgeStyle;rounded=0;orthogonalLoop=1;jettySize=auto;html=1;" parent="WIyWlLk6GJQsqaUBKTNV-1" source="1vm_EwPhKsrHVtNsUGHA-6" target="1vm_EwPhKsrHVtNsUGHA-13" edge="1">
          <mxGeometry relative="1" as="geometry" />
        </mxCell>
        <mxCell id="1vm_EwPhKsrHVtNsUGHA-23" style="edgeStyle=orthogonalEdgeStyle;rounded=0;orthogonalLoop=1;jettySize=auto;html=1;" parent="WIyWlLk6GJQsqaUBKTNV-1" source="1vm_EwPhKsrHVtNsUGHA-6" edge="1">
          <mxGeometry relative="1" as="geometry">
            <mxPoint x="1943" y="1173" as="targetPoint" />
          </mxGeometry>
        </mxCell>
        <mxCell id="1vm_EwPhKsrHVtNsUGHA-24" style="edgeStyle=orthogonalEdgeStyle;rounded=0;orthogonalLoop=1;jettySize=auto;html=1;exitX=1;exitY=0.5;exitDx=0;exitDy=0;entryX=0.5;entryY=0;entryDx=0;entryDy=0;" parent="WIyWlLk6GJQsqaUBKTNV-1" source="1vm_EwPhKsrHVtNsUGHA-6" target="1vm_EwPhKsrHVtNsUGHA-15" edge="1">
          <mxGeometry relative="1" as="geometry">
            <mxPoint x="1942" y="1171" as="targetPoint" />
            <Array as="points">
              <mxPoint x="2023" y="997" />
              <mxPoint x="2023" y="1151" />
              <mxPoint x="1943" y="1151" />
            </Array>
          </mxGeometry>
        </mxCell>
        <mxCell id="1vm_EwPhKsrHVtNsUGHA-6" value="Er bilde &quot;liggende&quot;?" style="rhombus;whiteSpace=wrap;html=1;rounded=0;fontColor=#ffffff;strokeColor=#B09500;fillColor=#e3c800;align=center;" parent="WIyWlLk6GJQsqaUBKTNV-1" vertex="1">
          <mxGeometry x="1894.75" y="948" width="95.5" height="98" as="geometry" />
        </mxCell>
        <mxCell id="1vm_EwPhKsrHVtNsUGHA-11" value="Ja" style="text;html=1;align=center;verticalAlign=middle;resizable=0;points=[];autosize=1;" parent="WIyWlLk6GJQsqaUBKTNV-1" vertex="1">
          <mxGeometry x="1945" y="1046" width="23" height="18" as="geometry" />
        </mxCell>
        <mxCell id="1vm_EwPhKsrHVtNsUGHA-13" value="Roter bildet slik at det blir &quot;stående&quot;." style="whiteSpace=wrap;html=1;rounded=0;fontColor=#ffffff;strokeColor=#B09500;fillColor=#e3c800;" parent="WIyWlLk6GJQsqaUBKTNV-1" vertex="1">
          <mxGeometry x="1882.5" y="1074" width="120" height="60" as="geometry" />
        </mxCell>
        <mxCell id="1vm_EwPhKsrHVtNsUGHA-26" value="" style="edgeStyle=orthogonalEdgeStyle;rounded=0;orthogonalLoop=1;jettySize=auto;html=1;" parent="WIyWlLk6GJQsqaUBKTNV-1" source="1vm_EwPhKsrHVtNsUGHA-15" target="1vm_EwPhKsrHVtNsUGHA-25" edge="1">
          <mxGeometry relative="1" as="geometry" />
        </mxCell>
        <mxCell id="1vm_EwPhKsrHVtNsUGHA-15" value="Lager HSV eksemplar av bildet" style="whiteSpace=wrap;html=1;rounded=0;fontColor=#ffffff;strokeColor=#B09500;fillColor=#e3c800;" parent="WIyWlLk6GJQsqaUBKTNV-1" vertex="1">
          <mxGeometry x="1882.5" y="1173" width="120.5" height="35" as="geometry" />
        </mxCell>
        <mxCell id="1vm_EwPhKsrHVtNsUGHA-18" value="Returner" style="ellipse;whiteSpace=wrap;html=1;fillColor=#6d8764;strokeColor=#3A5431;fontColor=#ffffff;" parent="WIyWlLk6GJQsqaUBKTNV-1" vertex="1">
          <mxGeometry x="1862.25" y="1349" width="161" height="49" as="geometry" />
        </mxCell>
        <mxCell id="1vm_EwPhKsrHVtNsUGHA-22" value="Nei" style="text;html=1;align=center;verticalAlign=middle;resizable=0;points=[];autosize=1;" parent="WIyWlLk6GJQsqaUBKTNV-1" vertex="1">
          <mxGeometry x="1988.25" y="974" width="28" height="18" as="geometry" />
        </mxCell>
        <mxCell id="1vm_EwPhKsrHVtNsUGHA-31" value="" style="edgeStyle=orthogonalEdgeStyle;rounded=0;orthogonalLoop=1;jettySize=auto;html=1;" parent="WIyWlLk6GJQsqaUBKTNV-1" source="1vm_EwPhKsrHVtNsUGHA-25" target="1vm_EwPhKsrHVtNsUGHA-30" edge="1">
          <mxGeometry relative="1" as="geometry" />
        </mxCell>
        <mxCell id="1vm_EwPhKsrHVtNsUGHA-25" value="Lager HSV eksemplar av bildet" style="whiteSpace=wrap;html=1;rounded=0;fontColor=#ffffff;strokeColor=#B09500;fillColor=#e3c800;" parent="WIyWlLk6GJQsqaUBKTNV-1" vertex="1">
          <mxGeometry x="1882" y="1230" width="120.5" height="35" as="geometry" />
        </mxCell>
        <mxCell id="1vm_EwPhKsrHVtNsUGHA-27" value="" style="endArrow=classicThin;html=1;endFill=1;" parent="WIyWlLk6GJQsqaUBKTNV-1" edge="1">
          <mxGeometry width="50" height="50" relative="1" as="geometry">
            <mxPoint x="2023" y="1057" as="sourcePoint" />
            <mxPoint x="2023" y="1074" as="targetPoint" />
          </mxGeometry>
        </mxCell>
        <mxCell id="1vm_EwPhKsrHVtNsUGHA-32" style="edgeStyle=orthogonalEdgeStyle;rounded=0;orthogonalLoop=1;jettySize=auto;html=1;entryX=0.5;entryY=0;entryDx=0;entryDy=0;" parent="WIyWlLk6GJQsqaUBKTNV-1" source="1vm_EwPhKsrHVtNsUGHA-30" target="1vm_EwPhKsrHVtNsUGHA-18" edge="1">
          <mxGeometry relative="1" as="geometry" />
        </mxCell>
        <mxCell id="1vm_EwPhKsrHVtNsUGHA-30" value="Filtrerer HSV eksemplaert med medianBlur" style="whiteSpace=wrap;html=1;rounded=0;fontColor=#ffffff;strokeColor=#B09500;fillColor=#e3c800;" parent="WIyWlLk6GJQsqaUBKTNV-1" vertex="1">
          <mxGeometry x="1882" y="1283" width="120.5" height="42" as="geometry" />
        </mxCell>
        <mxCell id="GpUEYxH8Pvt1V9ykOzt6-2" value="Havbunn" style="text;html=1;strokeColor=none;fillColor=none;align=center;verticalAlign=middle;whiteSpace=wrap;rounded=0;fontSize=150;" parent="WIyWlLk6GJQsqaUBKTNV-1" vertex="1">
          <mxGeometry x="1800" y="-502" width="40" height="20" as="geometry" />
        </mxCell>
        <mxCell id="GpUEYxH8Pvt1V9ykOzt6-6" value="Togvogn" style="text;html=1;strokeColor=none;fillColor=none;align=center;verticalAlign=middle;whiteSpace=wrap;rounded=0;fontSize=150;" parent="WIyWlLk6GJQsqaUBKTNV-1" vertex="1">
          <mxGeometry x="5227" y="-587" width="40" height="20" as="geometry" />
        </mxCell>
        <mxCell id="GpUEYxH8Pvt1V9ykOzt6-7" style="edgeStyle=orthogonalEdgeStyle;rounded=0;orthogonalLoop=1;jettySize=auto;html=1;entryX=0.5;entryY=0;entryDx=0;entryDy=0;" parent="WIyWlLk6GJQsqaUBKTNV-1" source="GpUEYxH8Pvt1V9ykOzt6-8" target="GpUEYxH8Pvt1V9ykOzt6-10" edge="1">
          <mxGeometry relative="1" as="geometry" />
        </mxCell>
        <mxCell id="GpUEYxH8Pvt1V9ykOzt6-8" value="&lt;span style=&quot;color: rgb(255 , 255 , 255)&quot;&gt;main()&lt;/span&gt;" style="ellipse;whiteSpace=wrap;html=1;fillColor=#6d8764;strokeColor=#3A5431;fontColor=#ffffff;" parent="WIyWlLk6GJQsqaUBKTNV-1" vertex="1">
          <mxGeometry x="5160" y="-124.25" width="170" height="49" as="geometry" />
        </mxCell>
        <mxCell id="GpUEYxH8Pvt1V9ykOzt6-9" style="edgeStyle=orthogonalEdgeStyle;rounded=0;orthogonalLoop=1;jettySize=auto;html=1;" parent="WIyWlLk6GJQsqaUBKTNV-1" source="GpUEYxH8Pvt1V9ykOzt6-10" edge="1">
          <mxGeometry relative="1" as="geometry">
            <mxPoint x="5245" y="46.25" as="targetPoint" />
          </mxGeometry>
        </mxCell>
        <mxCell id="GpUEYxH8Pvt1V9ykOzt6-10" value="Definerer variabler" style="rounded=0;whiteSpace=wrap;html=1;fillColor=#e3c800;strokeColor=#B09500;fontColor=#ffffff;" parent="WIyWlLk6GJQsqaUBKTNV-1" vertex="1">
          <mxGeometry x="5175.25" y="-42.25" width="139.5" height="32" as="geometry" />
        </mxCell>
        <mxCell id="GpUEYxH8Pvt1V9ykOzt6-31" style="edgeStyle=orthogonalEdgeStyle;rounded=0;orthogonalLoop=1;jettySize=auto;html=1;fontSize=150;" parent="WIyWlLk6GJQsqaUBKTNV-1" source="GpUEYxH8Pvt1V9ykOzt6-13" target="GpUEYxH8Pvt1V9ykOzt6-29" edge="1">
          <mxGeometry relative="1" as="geometry" />
        </mxCell>
        <mxCell id="j0fN-uY5iQtCzrRlPb7C-1" style="edgeStyle=orthogonalEdgeStyle;rounded=0;orthogonalLoop=1;jettySize=auto;html=1;" parent="WIyWlLk6GJQsqaUBKTNV-1" source="GpUEYxH8Pvt1V9ykOzt6-13" target="GpUEYxH8Pvt1V9ykOzt6-66" edge="1">
          <mxGeometry relative="1" as="geometry">
            <Array as="points">
              <mxPoint x="5348" y="96" />
            </Array>
          </mxGeometry>
        </mxCell>
        <mxCell id="GpUEYxH8Pvt1V9ykOzt6-13" value="For løkke&lt;br&gt;5 runder" style="rhombus;whiteSpace=wrap;html=1;rounded=0;fontColor=#ffffff;strokeColor=#B09500;fillColor=#e3c800;align=center;" parent="WIyWlLk6GJQsqaUBKTNV-1" vertex="1">
          <mxGeometry x="5197.5" y="46.75" width="95.5" height="98" as="geometry" />
        </mxCell>
        <mxCell id="GpUEYxH8Pvt1V9ykOzt6-26" value="Returner" style="ellipse;whiteSpace=wrap;html=1;fillColor=#6d8764;strokeColor=#3A5431;fontColor=#ffffff;" parent="WIyWlLk6GJQsqaUBKTNV-1" vertex="1">
          <mxGeometry x="5265" y="1173.25" width="161" height="49" as="geometry" />
        </mxCell>
        <mxCell id="GpUEYxH8Pvt1V9ykOzt6-35" style="edgeStyle=orthogonalEdgeStyle;rounded=0;orthogonalLoop=1;jettySize=auto;html=1;entryX=0.5;entryY=0;entryDx=0;entryDy=0;fontSize=150;" parent="WIyWlLk6GJQsqaUBKTNV-1" source="GpUEYxH8Pvt1V9ykOzt6-29" target="GpUEYxH8Pvt1V9ykOzt6-33" edge="1">
          <mxGeometry relative="1" as="geometry" />
        </mxCell>
        <mxCell id="GpUEYxH8Pvt1V9ykOzt6-29" value="side = ContainerSide( bilde_x )" style="rounded=0;whiteSpace=wrap;html=1;fillColor=#6d8764;strokeColor=#3A5431;fontColor=#ffffff;" parent="WIyWlLk6GJQsqaUBKTNV-1" vertex="1">
          <mxGeometry x="5152.5599999999995" y="190.25" width="185.38" height="31.5" as="geometry" />
        </mxCell>
        <mxCell id="GpUEYxH8Pvt1V9ykOzt6-38" style="edgeStyle=orthogonalEdgeStyle;rounded=0;orthogonalLoop=1;jettySize=auto;html=1;entryX=1;entryY=0.5;entryDx=0;entryDy=0;fontSize=150;" parent="WIyWlLk6GJQsqaUBKTNV-1" source="GpUEYxH8Pvt1V9ykOzt6-33" target="GpUEYxH8Pvt1V9ykOzt6-37" edge="1">
          <mxGeometry relative="1" as="geometry" />
        </mxCell>
        <mxCell id="GpUEYxH8Pvt1V9ykOzt6-45" style="edgeStyle=orthogonalEdgeStyle;rounded=0;orthogonalLoop=1;jettySize=auto;html=1;fontSize=150;" parent="WIyWlLk6GJQsqaUBKTNV-1" source="GpUEYxH8Pvt1V9ykOzt6-33" target="GpUEYxH8Pvt1V9ykOzt6-34" edge="1">
          <mxGeometry relative="1" as="geometry" />
        </mxCell>
        <mxCell id="GpUEYxH8Pvt1V9ykOzt6-33" value="Topp?" style="rhombus;whiteSpace=wrap;html=1;rounded=0;fontColor=#ffffff;strokeColor=#B09500;fillColor=#e3c800;align=center;" parent="WIyWlLk6GJQsqaUBKTNV-1" vertex="1">
          <mxGeometry x="5197.5" y="261.75" width="95.5" height="98" as="geometry" />
        </mxCell>
        <mxCell id="GpUEYxH8Pvt1V9ykOzt6-40" style="edgeStyle=orthogonalEdgeStyle;rounded=0;orthogonalLoop=1;jettySize=auto;html=1;entryX=1;entryY=0.5;entryDx=0;entryDy=0;fontSize=150;" parent="WIyWlLk6GJQsqaUBKTNV-1" source="GpUEYxH8Pvt1V9ykOzt6-34" target="GpUEYxH8Pvt1V9ykOzt6-39" edge="1">
          <mxGeometry relative="1" as="geometry" />
        </mxCell>
        <mxCell id="GpUEYxH8Pvt1V9ykOzt6-59" style="edgeStyle=orthogonalEdgeStyle;rounded=0;orthogonalLoop=1;jettySize=auto;html=1;entryX=1;entryY=0.5;entryDx=0;entryDy=0;fontSize=150;" parent="WIyWlLk6GJQsqaUBKTNV-1" source="GpUEYxH8Pvt1V9ykOzt6-34" target="GpUEYxH8Pvt1V9ykOzt6-42" edge="1">
          <mxGeometry relative="1" as="geometry">
            <Array as="points">
              <mxPoint x="5245" y="427.25" />
              <mxPoint x="5245" y="496.25" />
            </Array>
          </mxGeometry>
        </mxCell>
        <mxCell id="GpUEYxH8Pvt1V9ykOzt6-34" value="Kortside?" style="rhombus;whiteSpace=wrap;html=1;rounded=0;fontColor=#ffffff;strokeColor=#B09500;fillColor=#e3c800;align=center;" parent="WIyWlLk6GJQsqaUBKTNV-1" vertex="1">
          <mxGeometry x="5197.5" y="378.25" width="95.5" height="98" as="geometry" />
        </mxCell>
        <mxCell id="GpUEYxH8Pvt1V9ykOzt6-62" style="edgeStyle=orthogonalEdgeStyle;rounded=0;orthogonalLoop=1;jettySize=auto;html=1;entryX=0;entryY=0.5;entryDx=0;entryDy=0;fontSize=150;" parent="WIyWlLk6GJQsqaUBKTNV-1" source="GpUEYxH8Pvt1V9ykOzt6-37" target="GpUEYxH8Pvt1V9ykOzt6-13" edge="1">
          <mxGeometry relative="1" as="geometry">
            <Array as="points">
              <mxPoint x="4962" y="311.25" />
              <mxPoint x="4962" y="96.25" />
            </Array>
          </mxGeometry>
        </mxCell>
        <mxCell id="GpUEYxH8Pvt1V9ykOzt6-37" value="topp = side&amp;nbsp;" style="rounded=0;whiteSpace=wrap;html=1;fillColor=#e3c800;strokeColor=#B09500;fontColor=#ffffff;" parent="WIyWlLk6GJQsqaUBKTNV-1" vertex="1">
          <mxGeometry x="5016.25" y="294.75" width="139.5" height="32" as="geometry" />
        </mxCell>
        <mxCell id="GpUEYxH8Pvt1V9ykOzt6-61" style="edgeStyle=orthogonalEdgeStyle;rounded=0;orthogonalLoop=1;jettySize=auto;html=1;entryX=0;entryY=0.5;entryDx=0;entryDy=0;fontSize=150;" parent="WIyWlLk6GJQsqaUBKTNV-1" source="GpUEYxH8Pvt1V9ykOzt6-39" target="GpUEYxH8Pvt1V9ykOzt6-13" edge="1">
          <mxGeometry relative="1" as="geometry">
            <Array as="points">
              <mxPoint x="4962" y="427.25" />
              <mxPoint x="4962" y="96.25" />
            </Array>
          </mxGeometry>
        </mxCell>
        <mxCell id="GpUEYxH8Pvt1V9ykOzt6-39" value="kortsider.append(side)&amp;nbsp;" style="rounded=0;whiteSpace=wrap;html=1;fillColor=#e3c800;strokeColor=#B09500;fontColor=#ffffff;" parent="WIyWlLk6GJQsqaUBKTNV-1" vertex="1">
          <mxGeometry x="5016.25" y="411.25" width="139.5" height="32" as="geometry" />
        </mxCell>
        <mxCell id="GpUEYxH8Pvt1V9ykOzt6-60" style="edgeStyle=orthogonalEdgeStyle;rounded=0;orthogonalLoop=1;jettySize=auto;html=1;fontSize=150;entryX=0;entryY=0.5;entryDx=0;entryDy=0;" parent="WIyWlLk6GJQsqaUBKTNV-1" source="GpUEYxH8Pvt1V9ykOzt6-42" target="GpUEYxH8Pvt1V9ykOzt6-13" edge="1">
          <mxGeometry relative="1" as="geometry">
            <mxPoint x="4966.33349609375" y="66.58334350585938" as="targetPoint" />
            <Array as="points">
              <mxPoint x="4962" y="496.25" />
              <mxPoint x="4962" y="96.25" />
            </Array>
          </mxGeometry>
        </mxCell>
        <mxCell id="GpUEYxH8Pvt1V9ykOzt6-42" value="langsider.append(side)&amp;nbsp;" style="rounded=0;whiteSpace=wrap;html=1;fillColor=#e3c800;strokeColor=#B09500;fontColor=#ffffff;" parent="WIyWlLk6GJQsqaUBKTNV-1" vertex="1">
          <mxGeometry x="5016.25" y="480.25" width="139.5" height="32" as="geometry" />
        </mxCell>
        <mxCell id="GpUEYxH8Pvt1V9ykOzt6-46" value="Nei" style="text;html=1;align=center;verticalAlign=middle;resizable=0;points=[];autosize=1;" parent="WIyWlLk6GJQsqaUBKTNV-1" vertex="1">
          <mxGeometry x="4520" y="182.61" width="28" height="18" as="geometry" />
        </mxCell>
        <mxCell id="GpUEYxH8Pvt1V9ykOzt6-47" value="Ja" style="text;html=1;align=center;verticalAlign=middle;resizable=0;points=[];autosize=1;" parent="WIyWlLk6GJQsqaUBKTNV-1" vertex="1">
          <mxGeometry x="5171" y="289.25" width="23" height="18" as="geometry" />
        </mxCell>
        <mxCell id="GpUEYxH8Pvt1V9ykOzt6-50" value="" style="endArrow=classicThin;html=1;endFill=1;" parent="WIyWlLk6GJQsqaUBKTNV-1" edge="1">
          <mxGeometry width="50" height="50" relative="1" as="geometry">
            <mxPoint x="5344.93" y="934.7499999999995" as="sourcePoint" />
            <mxPoint x="5344.93" y="944.7499999999995" as="targetPoint" />
          </mxGeometry>
        </mxCell>
        <mxCell id="GpUEYxH8Pvt1V9ykOzt6-52" value="Ja" style="text;html=1;align=center;verticalAlign=middle;resizable=0;points=[];autosize=1;" parent="WIyWlLk6GJQsqaUBKTNV-1" vertex="1">
          <mxGeometry x="5171" y="410.25" width="23" height="18" as="geometry" />
        </mxCell>
        <mxCell id="GpUEYxH8Pvt1V9ykOzt6-53" value="Ja" style="text;html=1;align=center;verticalAlign=middle;resizable=0;points=[];autosize=1;" parent="WIyWlLk6GJQsqaUBKTNV-1" vertex="1">
          <mxGeometry x="5319" y="857.25" width="23" height="18" as="geometry" />
        </mxCell>
        <mxCell id="GpUEYxH8Pvt1V9ykOzt6-54" value="Ja" style="text;html=1;align=center;verticalAlign=middle;resizable=0;points=[];autosize=1;" parent="WIyWlLk6GJQsqaUBKTNV-1" vertex="1">
          <mxGeometry x="4548" y="187.61" width="23" height="18" as="geometry" />
        </mxCell>
        <mxCell id="GpUEYxH8Pvt1V9ykOzt6-56" value="Nei" style="text;html=1;align=center;verticalAlign=middle;resizable=0;points=[];autosize=1;" parent="WIyWlLk6GJQsqaUBKTNV-1" vertex="1">
          <mxGeometry x="5212" y="477.75" width="28" height="18" as="geometry" />
        </mxCell>
        <mxCell id="GpUEYxH8Pvt1V9ykOzt6-57" value="Nei" style="text;html=1;align=center;verticalAlign=middle;resizable=0;points=[];autosize=1;" parent="WIyWlLk6GJQsqaUBKTNV-1" vertex="1">
          <mxGeometry x="5265" y="783.4300000000001" width="28" height="18" as="geometry" />
        </mxCell>
        <mxCell id="GpUEYxH8Pvt1V9ykOzt6-58" value="Nei" style="text;html=1;align=center;verticalAlign=middle;resizable=0;points=[];autosize=1;" parent="WIyWlLk6GJQsqaUBKTNV-1" vertex="1">
          <mxGeometry x="5215" y="356.25" width="28" height="18" as="geometry" />
        </mxCell>
        <mxCell id="GpUEYxH8Pvt1V9ykOzt6-63" value="Ferdig med løkke" style="text;html=1;align=center;verticalAlign=middle;resizable=0;points=[];autosize=1;" parent="WIyWlLk6GJQsqaUBKTNV-1" vertex="1">
          <mxGeometry x="5296" y="73" width="103" height="18" as="geometry" />
        </mxCell>
        <mxCell id="GpUEYxH8Pvt1V9ykOzt6-70" style="edgeStyle=orthogonalEdgeStyle;rounded=0;orthogonalLoop=1;jettySize=auto;html=1;fontSize=150;" parent="WIyWlLk6GJQsqaUBKTNV-1" source="GpUEYxH8Pvt1V9ykOzt6-64" edge="1">
          <mxGeometry relative="1" as="geometry">
            <mxPoint x="5088.75" y="811.2499694824219" as="targetPoint" />
          </mxGeometry>
        </mxCell>
        <mxCell id="GpUEYxH8Pvt1V9ykOzt6-102" style="edgeStyle=orthogonalEdgeStyle;rounded=0;orthogonalLoop=1;jettySize=auto;html=1;entryX=0;entryY=0.5;entryDx=0;entryDy=0;fontSize=150;" parent="WIyWlLk6GJQsqaUBKTNV-1" source="GpUEYxH8Pvt1V9ykOzt6-64" target="GpUEYxH8Pvt1V9ykOzt6-94" edge="1">
          <mxGeometry relative="1" as="geometry" />
        </mxCell>
        <mxCell id="GpUEYxH8Pvt1V9ykOzt6-64" value="For side i kortsider" style="rhombus;whiteSpace=wrap;html=1;rounded=0;fontColor=#ffffff;strokeColor=#B09500;fillColor=#e3c800;align=center;" parent="WIyWlLk6GJQsqaUBKTNV-1" vertex="1">
          <mxGeometry x="5041" y="654.75" width="95.5" height="98" as="geometry" />
        </mxCell>
        <mxCell id="GpUEYxH8Pvt1V9ykOzt6-135" style="edgeStyle=orthogonalEdgeStyle;rounded=0;orthogonalLoop=1;jettySize=auto;html=1;entryX=0.5;entryY=0;entryDx=0;entryDy=0;fontSize=150;" parent="WIyWlLk6GJQsqaUBKTNV-1" source="GpUEYxH8Pvt1V9ykOzt6-66" target="GpUEYxH8Pvt1V9ykOzt6-64" edge="1">
          <mxGeometry relative="1" as="geometry" />
        </mxCell>
        <mxCell id="GpUEYxH8Pvt1V9ykOzt6-66" value="Oppretter ny liste for sidene. Denne skal bli i sortert rekkefølge. Starter denne med en langside. Kikker så på hvilke kortside som passer til høyre for denne." style="rounded=0;whiteSpace=wrap;html=1;fillColor=#e3c800;strokeColor=#B09500;fontColor=#ffffff;" parent="WIyWlLk6GJQsqaUBKTNV-1" vertex="1">
          <mxGeometry x="5264.25" y="537" width="162.5" height="110" as="geometry" />
        </mxCell>
        <mxCell id="GpUEYxH8Pvt1V9ykOzt6-85" style="edgeStyle=orthogonalEdgeStyle;rounded=0;orthogonalLoop=1;jettySize=auto;html=1;fontSize=150;entryX=0;entryY=0.5;entryDx=0;entryDy=0;" parent="WIyWlLk6GJQsqaUBKTNV-1" source="GpUEYxH8Pvt1V9ykOzt6-72" target="GpUEYxH8Pvt1V9ykOzt6-64" edge="1">
          <mxGeometry relative="1" as="geometry">
            <mxPoint x="5030" y="704.25" as="targetPoint" />
            <Array as="points">
              <mxPoint x="4999" y="832.25" />
              <mxPoint x="4999" y="703.25" />
            </Array>
          </mxGeometry>
        </mxCell>
        <mxCell id="GpUEYxH8Pvt1V9ykOzt6-131" style="edgeStyle=orthogonalEdgeStyle;rounded=0;orthogonalLoop=1;jettySize=auto;html=1;fontSize=150;" parent="WIyWlLk6GJQsqaUBKTNV-1" source="GpUEYxH8Pvt1V9ykOzt6-72" target="GpUEYxH8Pvt1V9ykOzt6-77" edge="1">
          <mxGeometry relative="1" as="geometry" />
        </mxCell>
        <mxCell id="GpUEYxH8Pvt1V9ykOzt6-72" value="Passer&lt;br&gt;&amp;nbsp;langside og kortside &lt;br&gt;sammen?" style="rhombus;whiteSpace=wrap;html=1;rounded=0;fontColor=#ffffff;strokeColor=#B09500;fillColor=#e3c800;align=center;" parent="WIyWlLk6GJQsqaUBKTNV-1" vertex="1">
          <mxGeometry x="5037.5" y="783.4300000000001" width="102.5" height="98" as="geometry" />
        </mxCell>
        <mxCell id="GpUEYxH8Pvt1V9ykOzt6-82" style="edgeStyle=orthogonalEdgeStyle;rounded=0;orthogonalLoop=1;jettySize=auto;html=1;entryX=0.5;entryY=0;entryDx=0;entryDy=0;fontSize=150;" parent="WIyWlLk6GJQsqaUBKTNV-1" source="GpUEYxH8Pvt1V9ykOzt6-73" target="GpUEYxH8Pvt1V9ykOzt6-75" edge="1">
          <mxGeometry relative="1" as="geometry" />
        </mxCell>
        <mxCell id="GpUEYxH8Pvt1V9ykOzt6-134" style="edgeStyle=orthogonalEdgeStyle;rounded=0;orthogonalLoop=1;jettySize=auto;html=1;entryX=0;entryY=0.5;entryDx=0;entryDy=0;fontSize=150;" parent="WIyWlLk6GJQsqaUBKTNV-1" source="GpUEYxH8Pvt1V9ykOzt6-73" target="GpUEYxH8Pvt1V9ykOzt6-64" edge="1">
          <mxGeometry relative="1" as="geometry">
            <Array as="points">
              <mxPoint x="4999" y="1020.25" />
              <mxPoint x="4999" y="703.25" />
            </Array>
          </mxGeometry>
        </mxCell>
        <mxCell id="GpUEYxH8Pvt1V9ykOzt6-73" value="Passer&lt;br&gt;&amp;nbsp;toppen på denne&lt;br&gt;&amp;nbsp;langsiden?" style="rhombus;whiteSpace=wrap;html=1;rounded=0;fontColor=#ffffff;strokeColor=#B09500;fillColor=#e3c800;align=center;" parent="WIyWlLk6GJQsqaUBKTNV-1" vertex="1">
          <mxGeometry x="5039.25" y="971.23" width="99" height="98" as="geometry" />
        </mxCell>
        <mxCell id="GpUEYxH8Pvt1V9ykOzt6-92" style="edgeStyle=orthogonalEdgeStyle;rounded=0;orthogonalLoop=1;jettySize=auto;html=1;fontSize=150;entryX=0;entryY=0.5;entryDx=0;entryDy=0;" parent="WIyWlLk6GJQsqaUBKTNV-1" source="GpUEYxH8Pvt1V9ykOzt6-75" target="GpUEYxH8Pvt1V9ykOzt6-64" edge="1">
          <mxGeometry relative="1" as="geometry">
            <mxPoint x="4808.761701311384" y="420.4881243024554" as="targetPoint" />
            <Array as="points">
              <mxPoint x="5089" y="1158.25" />
              <mxPoint x="4999" y="1158.25" />
              <mxPoint x="4999" y="703.25" />
            </Array>
          </mxGeometry>
        </mxCell>
        <mxCell id="GpUEYxH8Pvt1V9ykOzt6-75" value="rekkefolge.append(topp)" style="rounded=0;whiteSpace=wrap;html=1;fillColor=#e3c800;strokeColor=#B09500;fontColor=#ffffff;" parent="WIyWlLk6GJQsqaUBKTNV-1" vertex="1">
          <mxGeometry x="5019" y="1104.18" width="139.5" height="32" as="geometry" />
        </mxCell>
        <mxCell id="GpUEYxH8Pvt1V9ykOzt6-81" style="edgeStyle=orthogonalEdgeStyle;rounded=0;orthogonalLoop=1;jettySize=auto;html=1;entryX=0.5;entryY=0;entryDx=0;entryDy=0;fontSize=150;" parent="WIyWlLk6GJQsqaUBKTNV-1" source="GpUEYxH8Pvt1V9ykOzt6-77" target="GpUEYxH8Pvt1V9ykOzt6-73" edge="1">
          <mxGeometry relative="1" as="geometry" />
        </mxCell>
        <mxCell id="GpUEYxH8Pvt1V9ykOzt6-77" value="rekkefolge.append(side)" style="rounded=0;whiteSpace=wrap;html=1;fillColor=#e3c800;strokeColor=#B09500;fontColor=#ffffff;" parent="WIyWlLk6GJQsqaUBKTNV-1" vertex="1">
          <mxGeometry x="5019" y="910.1800000000001" width="139.5" height="32" as="geometry" />
        </mxCell>
        <mxCell id="GpUEYxH8Pvt1V9ykOzt6-84" value="Ja" style="text;html=1;align=center;verticalAlign=middle;resizable=0;points=[];autosize=1;" parent="WIyWlLk6GJQsqaUBKTNV-1" vertex="1">
          <mxGeometry x="5061" y="1064.25" width="23" height="18" as="geometry" />
        </mxCell>
        <mxCell id="GpUEYxH8Pvt1V9ykOzt6-93" value="Ferdig med løkke" style="text;html=1;align=center;verticalAlign=middle;resizable=0;points=[];autosize=1;" parent="WIyWlLk6GJQsqaUBKTNV-1" vertex="1">
          <mxGeometry x="5136.5" y="683.25" width="103" height="18" as="geometry" />
        </mxCell>
        <mxCell id="GpUEYxH8Pvt1V9ykOzt6-103" style="edgeStyle=orthogonalEdgeStyle;rounded=0;orthogonalLoop=1;jettySize=auto;html=1;fontSize=150;" parent="WIyWlLk6GJQsqaUBKTNV-1" source="GpUEYxH8Pvt1V9ykOzt6-94" target="GpUEYxH8Pvt1V9ykOzt6-95" edge="1">
          <mxGeometry relative="1" as="geometry" />
        </mxCell>
        <mxCell id="GpUEYxH8Pvt1V9ykOzt6-94" value="rekkefolge.append(siste_langside)" style="rounded=0;whiteSpace=wrap;html=1;fillColor=#e3c800;strokeColor=#B09500;fontColor=#ffffff;" parent="WIyWlLk6GJQsqaUBKTNV-1" vertex="1">
          <mxGeometry x="5250" y="687.75" width="190" height="32" as="geometry" />
        </mxCell>
        <mxCell id="GpUEYxH8Pvt1V9ykOzt6-104" style="edgeStyle=orthogonalEdgeStyle;rounded=0;orthogonalLoop=1;jettySize=auto;html=1;entryX=0.5;entryY=0;entryDx=0;entryDy=0;fontSize=150;" parent="WIyWlLk6GJQsqaUBKTNV-1" source="GpUEYxH8Pvt1V9ykOzt6-95" target="GpUEYxH8Pvt1V9ykOzt6-96" edge="1">
          <mxGeometry relative="1" as="geometry" />
        </mxCell>
        <mxCell id="GpUEYxH8Pvt1V9ykOzt6-109" style="edgeStyle=orthogonalEdgeStyle;rounded=0;orthogonalLoop=1;jettySize=auto;html=1;fontSize=150;entryX=0.5;entryY=0;entryDx=0;entryDy=0;" parent="WIyWlLk6GJQsqaUBKTNV-1" source="GpUEYxH8Pvt1V9ykOzt6-95" target="GpUEYxH8Pvt1V9ykOzt6-97" edge="1">
          <mxGeometry relative="1" as="geometry">
            <mxPoint x="5212.571254185268" y="977.6309814453127" as="targetPoint" />
            <Array as="points">
              <mxPoint x="5202" y="805.25" />
              <mxPoint x="5202" y="957.25" />
              <mxPoint x="5345" y="957.25" />
            </Array>
          </mxGeometry>
        </mxCell>
        <mxCell id="GpUEYxH8Pvt1V9ykOzt6-95" value="Har toppen blitt plassert?" style="rhombus;whiteSpace=wrap;html=1;rounded=0;fontColor=#ffffff;strokeColor=#B09500;fillColor=#e3c800;align=center;" parent="WIyWlLk6GJQsqaUBKTNV-1" vertex="1">
          <mxGeometry x="5293.75" y="756" width="102.5" height="98" as="geometry" />
        </mxCell>
        <mxCell id="GpUEYxH8Pvt1V9ykOzt6-111" style="edgeStyle=orthogonalEdgeStyle;rounded=0;orthogonalLoop=1;jettySize=auto;html=1;entryX=0.5;entryY=0;entryDx=0;entryDy=0;fontSize=150;" parent="WIyWlLk6GJQsqaUBKTNV-1" source="GpUEYxH8Pvt1V9ykOzt6-96" target="GpUEYxH8Pvt1V9ykOzt6-97" edge="1">
          <mxGeometry relative="1" as="geometry" />
        </mxCell>
        <mxCell id="GpUEYxH8Pvt1V9ykOzt6-96" value="rekkefolge.append(topp)" style="rounded=0;whiteSpace=wrap;html=1;fillColor=#e3c800;strokeColor=#B09500;fontColor=#ffffff;" parent="WIyWlLk6GJQsqaUBKTNV-1" vertex="1">
          <mxGeometry x="5250.5" y="894.25" width="189" height="32" as="geometry" />
        </mxCell>
        <mxCell id="GpUEYxH8Pvt1V9ykOzt6-106" style="edgeStyle=orthogonalEdgeStyle;rounded=0;orthogonalLoop=1;jettySize=auto;html=1;entryX=0.5;entryY=0;entryDx=0;entryDy=0;fontSize=150;" parent="WIyWlLk6GJQsqaUBKTNV-1" source="GpUEYxH8Pvt1V9ykOzt6-97" target="GpUEYxH8Pvt1V9ykOzt6-100" edge="1">
          <mxGeometry relative="1" as="geometry" />
        </mxCell>
        <mxCell id="GpUEYxH8Pvt1V9ykOzt6-97" value="rekkefolge.append(siste_kortside)" style="rounded=0;whiteSpace=wrap;html=1;fillColor=#e3c800;strokeColor=#B09500;fontColor=#ffffff;" parent="WIyWlLk6GJQsqaUBKTNV-1" vertex="1">
          <mxGeometry x="5250" y="991.25" width="190" height="32" as="geometry" />
        </mxCell>
        <mxCell id="GpUEYxH8Pvt1V9ykOzt6-108" style="edgeStyle=orthogonalEdgeStyle;rounded=0;orthogonalLoop=1;jettySize=auto;html=1;entryX=0.5;entryY=0;entryDx=0;entryDy=0;fontSize=150;" parent="WIyWlLk6GJQsqaUBKTNV-1" source="GpUEYxH8Pvt1V9ykOzt6-98" target="GpUEYxH8Pvt1V9ykOzt6-26" edge="1">
          <mxGeometry relative="1" as="geometry" />
        </mxCell>
        <mxCell id="GpUEYxH8Pvt1V9ykOzt6-98" value="Vis bildemosaikken" style="rounded=0;whiteSpace=wrap;html=1;fillColor=#e3c800;strokeColor=#B09500;fontColor=#ffffff;" parent="WIyWlLk6GJQsqaUBKTNV-1" vertex="1">
          <mxGeometry x="5246.25" y="1110.75" width="198.5" height="32" as="geometry" />
        </mxCell>
        <mxCell id="GpUEYxH8Pvt1V9ykOzt6-107" style="edgeStyle=orthogonalEdgeStyle;rounded=0;orthogonalLoop=1;jettySize=auto;html=1;entryX=0.5;entryY=0;entryDx=0;entryDy=0;fontSize=150;" parent="WIyWlLk6GJQsqaUBKTNV-1" source="GpUEYxH8Pvt1V9ykOzt6-100" target="GpUEYxH8Pvt1V9ykOzt6-98" edge="1">
          <mxGeometry relative="1" as="geometry" />
        </mxCell>
        <mxCell id="GpUEYxH8Pvt1V9ykOzt6-100" value="mosaikk = draw_mosaic(rekkefølge)" style="rounded=0;whiteSpace=wrap;html=1;fillColor=#6d8764;strokeColor=#3A5431;fontColor=#ffffff;" parent="WIyWlLk6GJQsqaUBKTNV-1" vertex="1">
          <mxGeometry x="5246.5" y="1051.75" width="197" height="31.5" as="geometry" />
        </mxCell>
        <mxCell id="GpUEYxH8Pvt1V9ykOzt6-110" value="" style="endArrow=classicThin;html=1;endFill=1;" parent="WIyWlLk6GJQsqaUBKTNV-1" edge="1">
          <mxGeometry width="50" height="50" relative="1" as="geometry">
            <mxPoint x="5202" y="871.4299999999996" as="sourcePoint" />
            <mxPoint x="5202" y="881.4299999999996" as="targetPoint" />
          </mxGeometry>
        </mxCell>
        <mxCell id="GpUEYxH8Pvt1V9ykOzt6-112" value="" style="endArrow=classicThin;html=1;endFill=1;" parent="WIyWlLk6GJQsqaUBKTNV-1" edge="1">
          <mxGeometry width="50" height="50" relative="1" as="geometry">
            <mxPoint x="5031" y="1020.2399999999996" as="sourcePoint" />
            <mxPoint x="5019" y="1019.99" as="targetPoint" />
          </mxGeometry>
        </mxCell>
        <mxCell id="GpUEYxH8Pvt1V9ykOzt6-113" value="" style="endArrow=classicThin;html=1;endFill=1;" parent="WIyWlLk6GJQsqaUBKTNV-1" edge="1">
          <mxGeometry width="50" height="50" relative="1" as="geometry">
            <mxPoint x="4613" y="262.49999999999955" as="sourcePoint" />
            <mxPoint x="4613" y="255.61" as="targetPoint" />
          </mxGeometry>
        </mxCell>
        <mxCell id="GpUEYxH8Pvt1V9ykOzt6-114" value="" style="endArrow=classicThin;html=1;endFill=1;" parent="WIyWlLk6GJQsqaUBKTNV-1" edge="1">
          <mxGeometry width="50" height="50" relative="1" as="geometry">
            <mxPoint x="4623" y="272.49999999999955" as="sourcePoint" />
            <mxPoint x="4631.999999999999" y="272.49999999999955" as="targetPoint" />
            <Array as="points">
              <mxPoint x="4534" y="272.5" />
            </Array>
          </mxGeometry>
        </mxCell>
        <mxCell id="GpUEYxH8Pvt1V9ykOzt6-115" value="" style="endArrow=classicThin;html=1;endFill=1;" parent="WIyWlLk6GJQsqaUBKTNV-1" edge="1">
          <mxGeometry width="50" height="50" relative="1" as="geometry">
            <mxPoint x="4633" y="282.49999999999955" as="sourcePoint" />
            <mxPoint x="4641.999999999999" y="282.49999999999955" as="targetPoint" />
          </mxGeometry>
        </mxCell>
        <mxCell id="GpUEYxH8Pvt1V9ykOzt6-116" value="" style="endArrow=classicThin;html=1;endFill=1;" parent="WIyWlLk6GJQsqaUBKTNV-1" edge="1">
          <mxGeometry width="50" height="50" relative="1" as="geometry">
            <mxPoint x="4623" y="272.49999999999943" as="sourcePoint" />
            <mxPoint x="4623" y="265.61" as="targetPoint" />
          </mxGeometry>
        </mxCell>
        <mxCell id="GpUEYxH8Pvt1V9ykOzt6-117" value="" style="endArrow=classicThin;html=1;endFill=1;" parent="WIyWlLk6GJQsqaUBKTNV-1" edge="1">
          <mxGeometry width="50" height="50" relative="1" as="geometry">
            <mxPoint x="4633" y="282.49999999999943" as="sourcePoint" />
            <mxPoint x="4633" y="275.61" as="targetPoint" />
          </mxGeometry>
        </mxCell>
        <mxCell id="GpUEYxH8Pvt1V9ykOzt6-118" value="" style="endArrow=classicThin;html=1;endFill=1;" parent="WIyWlLk6GJQsqaUBKTNV-1" edge="1">
          <mxGeometry width="50" height="50" relative="1" as="geometry">
            <mxPoint x="4643" y="292.49999999999943" as="sourcePoint" />
            <mxPoint x="4643" y="285.61" as="targetPoint" />
          </mxGeometry>
        </mxCell>
        <mxCell id="GpUEYxH8Pvt1V9ykOzt6-119" value="" style="endArrow=classicThin;html=1;endFill=1;" parent="WIyWlLk6GJQsqaUBKTNV-1" edge="1">
          <mxGeometry width="50" height="50" relative="1" as="geometry">
            <mxPoint x="4999" y="1117.7499999999995" as="sourcePoint" />
            <mxPoint x="4999" y="1110.8600000000001" as="targetPoint" />
          </mxGeometry>
        </mxCell>
        <mxCell id="GpUEYxH8Pvt1V9ykOzt6-120" value="" style="endArrow=classicThin;html=1;endFill=1;" parent="WIyWlLk6GJQsqaUBKTNV-1" edge="1">
          <mxGeometry width="50" height="50" relative="1" as="geometry">
            <mxPoint x="4999" y="922.1999999999994" as="sourcePoint" />
            <mxPoint x="4999" y="915.31" as="targetPoint" />
          </mxGeometry>
        </mxCell>
        <mxCell id="GpUEYxH8Pvt1V9ykOzt6-121" value="" style="endArrow=classicThin;html=1;endFill=1;" parent="WIyWlLk6GJQsqaUBKTNV-1" edge="1">
          <mxGeometry width="50" height="50" relative="1" as="geometry">
            <mxPoint x="4625.5" y="222.85999999999956" as="sourcePoint" />
            <mxPoint x="4613.5" y="222.61" as="targetPoint" />
          </mxGeometry>
        </mxCell>
        <mxCell id="GpUEYxH8Pvt1V9ykOzt6-122" value="" style="endArrow=classicThin;html=1;endFill=1;" parent="WIyWlLk6GJQsqaUBKTNV-1" edge="1">
          <mxGeometry width="50" height="50" relative="1" as="geometry">
            <mxPoint x="4640" y="243.87999999999954" as="sourcePoint" />
            <mxPoint x="4628" y="243.63" as="targetPoint" />
          </mxGeometry>
        </mxCell>
        <mxCell id="GpUEYxH8Pvt1V9ykOzt6-123" value="" style="endArrow=classicThin;html=1;endFill=1;" parent="WIyWlLk6GJQsqaUBKTNV-1" edge="1">
          <mxGeometry width="50" height="50" relative="1" as="geometry">
            <mxPoint x="5027" y="832.4399999999996" as="sourcePoint" />
            <mxPoint x="5015" y="832.19" as="targetPoint" />
            <Array as="points">
              <mxPoint x="5015" y="832.45" />
            </Array>
          </mxGeometry>
        </mxCell>
        <mxCell id="GpUEYxH8Pvt1V9ykOzt6-124" value="" style="endArrow=classicThin;html=1;endFill=1;" parent="WIyWlLk6GJQsqaUBKTNV-1" edge="1">
          <mxGeometry width="50" height="50" relative="1" as="geometry">
            <mxPoint x="4597.999999999999" y="239.60999999999956" as="sourcePoint" />
            <mxPoint x="4607" y="239.60999999999956" as="targetPoint" />
          </mxGeometry>
        </mxCell>
        <mxCell id="GpUEYxH8Pvt1V9ykOzt6-125" value="Nei" style="text;html=1;align=center;verticalAlign=middle;resizable=0;points=[];autosize=1;" parent="WIyWlLk6GJQsqaUBKTNV-1" vertex="1">
          <mxGeometry x="5011.25" y="996.25" width="28" height="18" as="geometry" />
        </mxCell>
        <mxCell id="GpUEYxH8Pvt1V9ykOzt6-83" value="Ja" style="text;html=1;align=center;verticalAlign=middle;resizable=0;points=[];autosize=1;" parent="WIyWlLk6GJQsqaUBKTNV-1" vertex="1">
          <mxGeometry x="5064" y="879.25" width="23" height="18" as="geometry" />
        </mxCell>
        <mxCell id="GpUEYxH8Pvt1V9ykOzt6-128" value="Nei" style="text;html=1;align=center;verticalAlign=middle;resizable=0;points=[];autosize=1;" parent="WIyWlLk6GJQsqaUBKTNV-1" vertex="1">
          <mxGeometry x="5013" y="805" width="28" height="18" as="geometry" />
        </mxCell>
        <mxCell id="j0fN-uY5iQtCzrRlPb7C-4" style="edgeStyle=orthogonalEdgeStyle;rounded=0;orthogonalLoop=1;jettySize=auto;html=1;entryX=0.5;entryY=0;entryDx=0;entryDy=0;" parent="WIyWlLk6GJQsqaUBKTNV-1" source="j0fN-uY5iQtCzrRlPb7C-2" target="j0fN-uY5iQtCzrRlPb7C-3" edge="1">
          <mxGeometry relative="1" as="geometry" />
        </mxCell>
        <mxCell id="j0fN-uY5iQtCzrRlPb7C-2" value="&lt;span style=&quot;color: rgb(255 , 255 , 255)&quot;&gt;draw_mosaic(sorterte_sider)&lt;/span&gt;" style="ellipse;whiteSpace=wrap;html=1;fillColor=#6d8764;strokeColor=#3A5431;fontColor=#ffffff;" parent="WIyWlLk6GJQsqaUBKTNV-1" vertex="1">
          <mxGeometry x="5851" y="-124.25" width="170" height="49" as="geometry" />
        </mxCell>
        <mxCell id="j0fN-uY5iQtCzrRlPb7C-6" style="edgeStyle=orthogonalEdgeStyle;rounded=0;orthogonalLoop=1;jettySize=auto;html=1;entryX=0.5;entryY=0;entryDx=0;entryDy=0;" parent="WIyWlLk6GJQsqaUBKTNV-1" source="j0fN-uY5iQtCzrRlPb7C-3" target="j0fN-uY5iQtCzrRlPb7C-5" edge="1">
          <mxGeometry relative="1" as="geometry" />
        </mxCell>
        <mxCell id="j0fN-uY5iQtCzrRlPb7C-3" value="Definerer bakgrunnsbildet og variabler" style="rounded=0;whiteSpace=wrap;html=1;fillColor=#e3c800;strokeColor=#B09500;fontColor=#ffffff;" parent="WIyWlLk6GJQsqaUBKTNV-1" vertex="1">
          <mxGeometry x="5859.63" y="-42.25" width="152.75" height="32" as="geometry" />
        </mxCell>
        <mxCell id="j0fN-uY5iQtCzrRlPb7C-8" style="edgeStyle=orthogonalEdgeStyle;rounded=0;orthogonalLoop=1;jettySize=auto;html=1;entryX=0.5;entryY=0;entryDx=0;entryDy=0;" parent="WIyWlLk6GJQsqaUBKTNV-1" source="j0fN-uY5iQtCzrRlPb7C-5" target="j0fN-uY5iQtCzrRlPb7C-7" edge="1">
          <mxGeometry relative="1" as="geometry" />
        </mxCell>
        <mxCell id="j0fN-uY5iQtCzrRlPb7C-16" style="edgeStyle=orthogonalEdgeStyle;rounded=0;orthogonalLoop=1;jettySize=auto;html=1;entryX=0.5;entryY=0;entryDx=0;entryDy=0;" parent="WIyWlLk6GJQsqaUBKTNV-1" source="j0fN-uY5iQtCzrRlPb7C-5" target="j0fN-uY5iQtCzrRlPb7C-14" edge="1">
          <mxGeometry relative="1" as="geometry">
            <Array as="points">
              <mxPoint x="6058" y="72" />
              <mxPoint x="6058" y="428" />
              <mxPoint x="5936" y="428" />
              <mxPoint x="5936" y="461" />
            </Array>
          </mxGeometry>
        </mxCell>
        <mxCell id="j0fN-uY5iQtCzrRlPb7C-5" value="For hver av sidene" style="rhombus;whiteSpace=wrap;html=1;rounded=0;fontColor=#ffffff;strokeColor=#B09500;fillColor=#e3c800;align=center;" parent="WIyWlLk6GJQsqaUBKTNV-1" vertex="1">
          <mxGeometry x="5888.25" y="23" width="95.5" height="98" as="geometry" />
        </mxCell>
        <mxCell id="j0fN-uY5iQtCzrRlPb7C-11" style="edgeStyle=orthogonalEdgeStyle;rounded=0;orthogonalLoop=1;jettySize=auto;html=1;entryX=0.5;entryY=0;entryDx=0;entryDy=0;" parent="WIyWlLk6GJQsqaUBKTNV-1" source="j0fN-uY5iQtCzrRlPb7C-7" target="j0fN-uY5iQtCzrRlPb7C-9" edge="1">
          <mxGeometry relative="1" as="geometry" />
        </mxCell>
        <mxCell id="j0fN-uY5iQtCzrRlPb7C-13" style="edgeStyle=orthogonalEdgeStyle;rounded=0;orthogonalLoop=1;jettySize=auto;html=1;entryX=1;entryY=0.5;entryDx=0;entryDy=0;" parent="WIyWlLk6GJQsqaUBKTNV-1" source="j0fN-uY5iQtCzrRlPb7C-7" target="j0fN-uY5iQtCzrRlPb7C-10" edge="1">
          <mxGeometry relative="1" as="geometry">
            <Array as="points">
              <mxPoint x="6032" y="203" />
              <mxPoint x="6032" y="358" />
            </Array>
          </mxGeometry>
        </mxCell>
        <mxCell id="j0fN-uY5iQtCzrRlPb7C-7" value="Hvis siden er topp" style="rhombus;whiteSpace=wrap;html=1;rounded=0;fontColor=#ffffff;strokeColor=#B09500;fillColor=#e3c800;align=center;" parent="WIyWlLk6GJQsqaUBKTNV-1" vertex="1">
          <mxGeometry x="5888.25" y="154" width="95.5" height="98" as="geometry" />
        </mxCell>
        <mxCell id="j0fN-uY5iQtCzrRlPb7C-12" style="edgeStyle=orthogonalEdgeStyle;rounded=0;orthogonalLoop=1;jettySize=auto;html=1;" parent="WIyWlLk6GJQsqaUBKTNV-1" source="j0fN-uY5iQtCzrRlPb7C-9" target="j0fN-uY5iQtCzrRlPb7C-10" edge="1">
          <mxGeometry relative="1" as="geometry" />
        </mxCell>
        <mxCell id="j0fN-uY5iQtCzrRlPb7C-9" value="Justerer variabler for toppflaten" style="rounded=0;whiteSpace=wrap;html=1;fillColor=#e3c800;strokeColor=#B09500;fontColor=#ffffff;" parent="WIyWlLk6GJQsqaUBKTNV-1" vertex="1">
          <mxGeometry x="5859.62" y="277" width="152.75" height="32" as="geometry" />
        </mxCell>
        <mxCell id="j0fN-uY5iQtCzrRlPb7C-15" style="edgeStyle=orthogonalEdgeStyle;rounded=0;orthogonalLoop=1;jettySize=auto;html=1;entryX=0;entryY=0.5;entryDx=0;entryDy=0;" parent="WIyWlLk6GJQsqaUBKTNV-1" source="j0fN-uY5iQtCzrRlPb7C-10" target="j0fN-uY5iQtCzrRlPb7C-5" edge="1">
          <mxGeometry relative="1" as="geometry">
            <Array as="points">
              <mxPoint x="5936" y="400" />
              <mxPoint x="5827" y="400" />
              <mxPoint x="5827" y="72" />
            </Array>
          </mxGeometry>
        </mxCell>
        <mxCell id="j0fN-uY5iQtCzrRlPb7C-10" value="Tegner inn siden" style="rounded=0;whiteSpace=wrap;html=1;fillColor=#e3c800;strokeColor=#B09500;fontColor=#ffffff;" parent="WIyWlLk6GJQsqaUBKTNV-1" vertex="1">
          <mxGeometry x="5859.62" y="341.5" width="152.75" height="32" as="geometry" />
        </mxCell>
        <mxCell id="j0fN-uY5iQtCzrRlPb7C-14" value="Returner bildemosaikk" style="ellipse;whiteSpace=wrap;html=1;fillColor=#6d8764;strokeColor=#3A5431;fontColor=#ffffff;" parent="WIyWlLk6GJQsqaUBKTNV-1" vertex="1">
          <mxGeometry x="5855.5" y="469.5" width="161" height="49" as="geometry" />
        </mxCell>
        <mxCell id="j0fN-uY5iQtCzrRlPb7C-17" value="Ferdig med løkke" style="text;html=1;align=center;verticalAlign=middle;resizable=0;points=[];autosize=1;" parent="WIyWlLk6GJQsqaUBKTNV-1" vertex="1">
          <mxGeometry x="5981" y="50.5" width="103" height="18" as="geometry" />
        </mxCell>
        <mxCell id="j0fN-uY5iQtCzrRlPb7C-18" value="&lt;span style=&quot;color: rgb(0, 0, 0); font-family: helvetica; font-size: 12px; font-style: normal; font-weight: 400; letter-spacing: normal; text-align: center; text-indent: 0px; text-transform: none; word-spacing: 0px; background-color: rgb(255, 255, 255); display: inline; float: none;&quot;&gt;Ja&lt;/span&gt;" style="text;whiteSpace=wrap;html=1;" parent="WIyWlLk6GJQsqaUBKTNV-1" vertex="1">
          <mxGeometry x="5914.00349609375" y="248.0033740234375" width="33" height="28" as="geometry" />
        </mxCell>
        <mxCell id="j0fN-uY5iQtCzrRlPb7C-21" value="Nei" style="text;html=1;align=center;verticalAlign=middle;resizable=0;points=[];autosize=1;" parent="WIyWlLk6GJQsqaUBKTNV-1" vertex="1">
          <mxGeometry x="5981" y="206.5" width="28" height="18" as="geometry" />
        </mxCell>
        <mxCell id="j0fN-uY5iQtCzrRlPb7C-22" style="edgeStyle=orthogonalEdgeStyle;rounded=0;orthogonalLoop=1;jettySize=auto;html=1;entryX=0.5;entryY=0;entryDx=0;entryDy=0;fillColor=#6d8764;strokeColor=#3A5431;" parent="WIyWlLk6GJQsqaUBKTNV-1" source="j0fN-uY5iQtCzrRlPb7C-23" target="j0fN-uY5iQtCzrRlPb7C-25" edge="1">
          <mxGeometry relative="1" as="geometry" />
        </mxCell>
        <mxCell id="j0fN-uY5iQtCzrRlPb7C-23" value="seabed.find_roi()" style="rounded=1;whiteSpace=wrap;html=1;fillColor=#6d8764;strokeColor=#3A5431;fontColor=#ffffff;" parent="WIyWlLk6GJQsqaUBKTNV-1" vertex="1">
          <mxGeometry x="6817" y="-17" width="160" height="60" as="geometry" />
        </mxCell>
        <mxCell id="j0fN-uY5iQtCzrRlPb7C-24" style="edgeStyle=orthogonalEdgeStyle;rounded=0;orthogonalLoop=1;jettySize=auto;html=1;fillColor=#6d8764;strokeColor=#3A5431;" parent="WIyWlLk6GJQsqaUBKTNV-1" source="j0fN-uY5iQtCzrRlPb7C-25" target="j0fN-uY5iQtCzrRlPb7C-26" edge="1">
          <mxGeometry relative="1" as="geometry" />
        </mxCell>
        <mxCell id="j0fN-uY5iQtCzrRlPb7C-25" value="seabed.split_roi_&lt;br&gt;into_squares()" style="rounded=1;whiteSpace=wrap;html=1;fillColor=#6d8764;strokeColor=#3A5431;fontColor=#ffffff;" parent="WIyWlLk6GJQsqaUBKTNV-1" vertex="1">
          <mxGeometry x="6817" y="103" width="160" height="60" as="geometry" />
        </mxCell>
        <mxCell id="j0fN-uY5iQtCzrRlPb7C-26" value="seabed.draw_map()" style="rounded=1;whiteSpace=wrap;html=1;fillColor=#6d8764;strokeColor=#3A5431;fontColor=#ffffff;" parent="WIyWlLk6GJQsqaUBKTNV-1" vertex="1">
          <mxGeometry x="6817" y="213" width="160" height="60" as="geometry" />
        </mxCell>
        <mxCell id="j0fN-uY5iQtCzrRlPb7C-27" style="edgeStyle=orthogonalEdgeStyle;rounded=0;orthogonalLoop=1;jettySize=auto;html=1;entryX=0.5;entryY=0;entryDx=0;entryDy=0;fillColor=#6d8764;strokeColor=#3A5431;" parent="WIyWlLk6GJQsqaUBKTNV-1" source="j0fN-uY5iQtCzrRlPb7C-28" target="j0fN-uY5iQtCzrRlPb7C-23" edge="1">
          <mxGeometry relative="1" as="geometry" />
        </mxCell>
        <mxCell id="j0fN-uY5iQtCzrRlPb7C-28" value="seabed.initial_image_&lt;br&gt;transformations()" style="rounded=1;whiteSpace=wrap;html=1;fillColor=#6d8764;strokeColor=#3A5431;fontColor=#ffffff;" parent="WIyWlLk6GJQsqaUBKTNV-1" vertex="1">
          <mxGeometry x="6817" y="-137" width="160" height="60" as="geometry" />
        </mxCell>
        <mxCell id="j0fN-uY5iQtCzrRlPb7C-51" style="edgeStyle=orthogonalEdgeStyle;rounded=0;orthogonalLoop=1;jettySize=auto;html=1;entryX=0.5;entryY=0;entryDx=0;entryDy=0;" parent="WIyWlLk6GJQsqaUBKTNV-1" source="j0fN-uY5iQtCzrRlPb7C-52" target="j0fN-uY5iQtCzrRlPb7C-28" edge="1">
          <mxGeometry relative="1" as="geometry" />
        </mxCell>
        <mxCell id="j0fN-uY5iQtCzrRlPb7C-52" value="seabed = Seabed(img, map)" style="rounded=1;whiteSpace=wrap;html=1;fillColor=#6d8764;strokeColor=#3A5431;fontColor=#ffffff;" parent="WIyWlLk6GJQsqaUBKTNV-1" vertex="1">
          <mxGeometry x="6817" y="-247" width="160" height="60" as="geometry" />
        </mxCell>
        <mxCell id="j0fN-uY5iQtCzrRlPb7C-29" value="ContainerSide" style="swimlane;fontStyle=0;align=center;verticalAlign=top;childLayout=stackLayout;horizontal=1;startSize=26;horizontalStack=0;resizeParent=1;resizeLast=0;collapsible=1;marginBottom=0;rounded=0;shadow=0;strokeWidth=1;fillColor=#fff2cc;strokeColor=#d6b656;" parent="WIyWlLk6GJQsqaUBKTNV-1" vertex="1">
          <mxGeometry x="6501" y="-257" width="200" height="216" as="geometry">
            <mxRectangle x="6501" y="-257" width="160" height="26" as="alternateBounds" />
          </mxGeometry>
        </mxCell>
        <mxCell id="j0fN-uY5iQtCzrRlPb7C-30" value="+ div image formats" style="text;align=left;verticalAlign=top;spacingLeft=4;spacingRight=4;overflow=hidden;rotatable=0;points=[[0,0.5],[1,0.5]];portConstraint=eastwest;fillColor=#f5f5f5;strokeColor=#666666;fontColor=#333333;" parent="j0fN-uY5iQtCzrRlPb7C-29" vertex="1">
          <mxGeometry y="26" width="200" height="26" as="geometry" />
        </mxCell>
        <mxCell id="j0fN-uY5iQtCzrRlPb7C-31" value="+ div parameters" style="text;align=left;verticalAlign=top;spacingLeft=4;spacingRight=4;overflow=hidden;rotatable=0;points=[[0,0.5],[1,0.5]];portConstraint=eastwest;rounded=0;shadow=0;html=0;fillColor=#f5f5f5;strokeColor=#666666;fontColor=#333333;" parent="j0fN-uY5iQtCzrRlPb7C-29" vertex="1">
          <mxGeometry y="52" width="200" height="26" as="geometry" />
        </mxCell>
        <mxCell id="j0fN-uY5iQtCzrRlPb7C-32" value="+ map" style="text;align=left;verticalAlign=top;spacingLeft=4;spacingRight=4;overflow=hidden;rotatable=0;points=[[0,0.5],[1,0.5]];portConstraint=eastwest;rounded=0;shadow=0;html=0;fillColor=#f5f5f5;strokeColor=#666666;fontColor=#333333;" parent="j0fN-uY5iQtCzrRlPb7C-29" vertex="1">
          <mxGeometry y="78" width="200" height="26" as="geometry" />
        </mxCell>
        <mxCell id="j0fN-uY5iQtCzrRlPb7C-33" value="+ squares" style="text;align=left;verticalAlign=top;spacingLeft=4;spacingRight=4;overflow=hidden;rotatable=0;points=[[0,0.5],[1,0.5]];portConstraint=eastwest;rounded=0;shadow=0;html=0;fillColor=#f5f5f5;strokeColor=#666666;fontColor=#333333;" parent="j0fN-uY5iQtCzrRlPb7C-29" vertex="1">
          <mxGeometry y="104" width="200" height="26" as="geometry" />
        </mxCell>
        <mxCell id="j0fN-uY5iQtCzrRlPb7C-34" value="" style="line;html=1;strokeWidth=1;align=left;verticalAlign=middle;spacingTop=-1;spacingLeft=3;spacingRight=3;rotatable=0;labelPosition=right;points=[];portConstraint=eastwest;fillColor=#fff2cc;strokeColor=#d6b656;" parent="j0fN-uY5iQtCzrRlPb7C-29" vertex="1">
          <mxGeometry y="130" width="200" height="8" as="geometry" />
        </mxCell>
        <mxCell id="j0fN-uY5iQtCzrRlPb7C-35" value="+ find_box_and_crop_img()" style="text;align=left;verticalAlign=top;spacingLeft=4;spacingRight=4;overflow=hidden;rotatable=0;points=[[0,0.5],[1,0.5]];portConstraint=eastwest;fillColor=#f5f5f5;strokeColor=#666666;fontColor=#333333;" parent="j0fN-uY5iQtCzrRlPb7C-29" vertex="1">
          <mxGeometry y="138" width="200" height="26" as="geometry" />
        </mxCell>
        <mxCell id="j0fN-uY5iQtCzrRlPb7C-36" value="+ resize_img_to_standard()" style="text;align=left;verticalAlign=top;spacingLeft=4;spacingRight=4;overflow=hidden;rotatable=0;points=[[0,0.5],[1,0.5]];portConstraint=eastwest;fillColor=#f5f5f5;strokeColor=#666666;fontColor=#333333;" parent="j0fN-uY5iQtCzrRlPb7C-29" vertex="1">
          <mxGeometry y="164" width="200" height="26" as="geometry" />
        </mxCell>
        <mxCell id="j0fN-uY5iQtCzrRlPb7C-37" value="+ define_attributes()" style="text;align=left;verticalAlign=top;spacingLeft=4;spacingRight=4;overflow=hidden;rotatable=0;points=[[0,0.5],[1,0.5]];portConstraint=eastwest;fillColor=#f5f5f5;strokeColor=#666666;fontColor=#333333;" parent="j0fN-uY5iQtCzrRlPb7C-29" vertex="1">
          <mxGeometry y="190" width="200" height="26" as="geometry" />
        </mxCell>
      </root>
    </mxGraphModel>
  </diagram>
  <diagram id="JGZwVXa_J14ueqeqCTL3" name="Page-2">
    <mxGraphModel dx="460" dy="748" grid="1" gridSize="10" guides="1" tooltips="1" connect="1" arrows="1" fold="1" page="1" pageScale="1" pageWidth="827" pageHeight="1169" math="0" shadow="0">
      <root>
        <mxCell id="_Qri9ZgtomFuAMJiiEAO-0" />
        <mxCell id="_Qri9ZgtomFuAMJiiEAO-1" parent="_Qri9ZgtomFuAMJiiEAO-0" />
      </root>
    </mxGraphModel>
  </diagram>
</mxfile>
